<?xml version="1.0" encoding="UTF-8" standalone="no"?><svg xmlns="http://www.w3.org/2000/svg" xmlns:xlink="http://www.w3.org/1999/xlink" contentScriptType="application/ecmascript" contentStyleType="text/css" height="176px" preserveAspectRatio="none" style="width:625px;height:176px;" version="1.1" viewBox="0 0 625 176" width="625px" zoomAndPan="magnify"><defs><filter height="300%" id="f106bgqk11i02w" width="300%" x="-1" y="-1"><feGaussianBlur result="blurOut" stdDeviation="2.0"/><feColorMatrix in="blurOut" result="blurOut2" type="matrix" values="0 0 0 0 0 0 0 0 0 0 0 0 0 0 0 0 0 0 .4 0"/><feOffset dx="4.0" dy="4.0" in="blurOut2" result="blurOut3"/><feBlend in="SourceGraphic" in2="blurOut3" mode="normal"/></filter></defs><g><!--cluster at.fhv.itm3.s2.roundabout.controller--><polygon fill="#FFFFFF" filter="url(#f106bgqk11i02w)" points="14,16,276,16,283,38.4883,603,38.4883,603,164,14,164,14,16" style="stroke: #000000; stroke-width: 2.0;"/><line style="stroke: #000000; stroke-width: 2.0;" x1="14" x2="283" y1="38.4883" y2="38.4883"/><text fill="#000000" font-family="sans-serif" font-size="14" font-weight="bold" lengthAdjust="spacingAndGlyphs" textLength="256" x="18" y="31.5352">at.fhv.itm3.s2.roundabout.controller</text><!--class at.fhv.itm3.s2.roundabout.controller.RouteController--><a target="_top" xlink:actuate="onRequest" xlink:href="../../../../../at/fhv/itm3/s2/roundabout/controller/RouteController.html" xlink:show="new" xlink:title="../../../../../at/fhv/itm3/s2/roundabout/controller/RouteController.html" xlink:type="simple"><rect fill="#FEFECE" filter="url(#f106bgqk11i02w)" height="73.9102" id="at.fhv.itm3.s2.roundabout.controller.RouteController" style="stroke: #A80036; stroke-width: 1.5;" width="342" x="253" y="62.5"/><ellipse cx="375.25" cy="78.5" fill="#ADD1B2" rx="11" ry="11" style="stroke: #A80036; stroke-width: 1.0;"/><path d="M378.2231,84.1431 Q377.6421,84.4419 377.0029,84.5913 Q376.3638,84.7407 375.6582,84.7407 Q373.1514,84.7407 371.8315,83.0889 Q370.5117,81.437 370.5117,78.3159 Q370.5117,75.1865 371.8315,73.5347 Q373.1514,71.8828 375.6582,71.8828 Q376.3638,71.8828 377.0112,72.0322 Q377.6587,72.1816 378.2231,72.4805 L378.2231,75.2031 Q377.5923,74.6221 376.9988,74.3523 Q376.4053,74.0825 375.7744,74.0825 Q374.4297,74.0825 373.7449,75.1492 Q373.0601,76.2158 373.0601,78.3159 Q373.0601,80.4077 373.7449,81.4744 Q374.4297,82.541 375.7744,82.541 Q376.4053,82.541 376.9988,82.2712 Q377.5923,82.0015 378.2231,81.4204 Z "/><text fill="#000000" font-family="sans-serif" font-size="12" lengthAdjust="spacingAndGlyphs" textLength="89" x="395.75" y="83.0352">RouteController</text><line style="stroke: #A80036; stroke-width: 1.5;" x1="254" x2="594" y1="94.5" y2="94.5"/><line style="stroke: #A80036; stroke-width: 1.5;" x1="254" x2="594" y1="102.5" y2="102.5"/><ellipse cx="264" cy="114.4775" fill="#84BE84" rx="3" ry="3" style="stroke: #038048; stroke-width: 1.0;"/><text fill="#000000" font-family="sans-serif" font-size="11" lengthAdjust="spacingAndGlyphs" text-decoration="underline" textLength="316" x="273" y="117.1348">getInstance(RoundaboutSimulationModel): RouteController</text><line style="stroke: #000000; stroke-width: 1.0;" x1="273" x2="589" y1="119.1348" y2="119.1348"/><ellipse cx="264" cy="127.4326" fill="#84BE84" rx="3" ry="3" style="stroke: #038048; stroke-width: 1.0;"/><text fill="#000000" font-family="sans-serif" font-size="11" lengthAdjust="spacingAndGlyphs" textLength="140" x="273" y="130.0898">getRandomRoute(): IRoute</text></a><!--class at.fhv.itm3.s2.roundabout.controller.CarController--><a target="_top" xlink:actuate="onRequest" xlink:href="../../../../../at/fhv/itm3/s2/roundabout/controller/CarController.html" xlink:show="new" xlink:title="../../../../../at/fhv/itm3/s2/roundabout/controller/CarController.html" xlink:type="simple"><rect fill="#FEFECE" filter="url(#f106bgqk11i02w)" height="112.7754" id="at.fhv.itm3.s2.roundabout.controller.CarController" style="stroke: #A80036; stroke-width: 1.5;" width="195" x="22.5" y="43"/><ellipse cx="77.75" cy="59" fill="#ADD1B2" rx="11" ry="11" style="stroke: #A80036; stroke-width: 1.0;"/><path d="M80.7231,64.6431 Q80.1421,64.9419 79.5029,65.0913 Q78.8638,65.2407 78.1582,65.2407 Q75.6514,65.2407 74.3315,63.5889 Q73.0117,61.937 73.0117,58.8159 Q73.0117,55.6865 74.3315,54.0347 Q75.6514,52.3828 78.1582,52.3828 Q78.8638,52.3828 79.5112,52.5322 Q80.1587,52.6816 80.7231,52.9805 L80.7231,55.7031 Q80.0923,55.1221 79.4988,54.8523 Q78.9053,54.5825 78.2744,54.5825 Q76.9297,54.5825 76.2449,55.6492 Q75.5601,56.7158 75.5601,58.8159 Q75.5601,60.9077 76.2449,61.9744 Q76.9297,63.041 78.2744,63.041 Q78.9053,63.041 79.4988,62.7712 Q80.0923,62.5015 80.7231,61.9204 Z "/><text fill="#000000" font-family="sans-serif" font-size="12" lengthAdjust="spacingAndGlyphs" textLength="76" x="98.25" y="63.5352">CarController</text><line style="stroke: #A80036; stroke-width: 1.5;" x1="23.5" x2="216.5" y1="75" y2="75"/><line style="stroke: #A80036; stroke-width: 1.5;" x1="23.5" x2="216.5" y1="83" y2="83"/><ellipse cx="33.5" cy="94.9775" fill="#84BE84" rx="3" ry="3" style="stroke: #038048; stroke-width: 1.0;"/><text fill="#000000" font-family="sans-serif" font-size="11" lengthAdjust="spacingAndGlyphs" text-decoration="underline" textLength="169" x="42.5" y="97.6348">addCarMapping(Car, ICar): void</text><line style="stroke: #000000; stroke-width: 1.0;" x1="42.5" x2="211.5" y1="99.6348" y2="99.6348"/><ellipse cx="33.5" cy="107.9326" fill="#84BE84" rx="3" ry="3" style="stroke: #038048; stroke-width: 1.0;"/><text fill="#000000" font-family="sans-serif" font-size="11" lengthAdjust="spacingAndGlyphs" text-decoration="underline" textLength="161" x="42.5" y="110.5898">removeCarMapping(Car): void</text><line style="stroke: #000000; stroke-width: 1.0;" x1="42.5" x2="203.5" y1="112.5898" y2="112.5898"/><ellipse cx="33.5" cy="120.8877" fill="#84BE84" rx="3" ry="3" style="stroke: #038048; stroke-width: 1.0;"/><text fill="#000000" font-family="sans-serif" font-size="11" lengthAdjust="spacingAndGlyphs" text-decoration="underline" textLength="164" x="42.5" y="123.5449">removeCarMapping(ICar): void</text><line style="stroke: #000000; stroke-width: 1.0;" x1="42.5" x2="206.5" y1="125.5449" y2="125.5449"/><ellipse cx="33.5" cy="133.8428" fill="#84BE84" rx="3" ry="3" style="stroke: #038048; stroke-width: 1.0;"/><text fill="#000000" font-family="sans-serif" font-size="11" lengthAdjust="spacingAndGlyphs" text-decoration="underline" textLength="94" x="42.5" y="136.5">getICar(Car): ICar</text><line style="stroke: #000000; stroke-width: 1.0;" x1="42.5" x2="136.5" y1="138.5" y2="138.5"/><ellipse cx="33.5" cy="146.7979" fill="#84BE84" rx="3" ry="3" style="stroke: #038048; stroke-width: 1.0;"/><text fill="#000000" font-family="sans-serif" font-size="11" lengthAdjust="spacingAndGlyphs" text-decoration="underline" textLength="91" x="42.5" y="149.4551">getCar(ICar): Car</text><line style="stroke: #000000; stroke-width: 1.0;" x1="42.5" x2="133.5" y1="151.4551" y2="151.4551"/></a><!--
@startuml

    namespace at.fhv.itm3.s2.roundabout.controller {

        class RouteController [[../../../../../at/fhv/itm3/s2/roundabout/controller/RouteController.html]] {
            {static} +getInstance(RoundaboutSimulationModel): RouteController
            +getRandomRoute(): IRoute
        }

        class CarController [[../../../../../at/fhv/itm3/s2/roundabout/controller/CarController.html]] {
            {static} +addCarMapping(Car, ICar): void
            {static} +removeCarMapping(Car): void
            {static} +removeCarMapping(ICar): void
            {static} +getICar(Car): ICar
            {static} +getCar(ICar): Car
        }

    }

@enduml

PlantUML version 1.2017.19(Sun Nov 12 12:46:22 CET 2017)
(APACHE source distribution)
Java Runtime: Java(TM) SE Runtime Environment
JVM: Java HotSpot(TM) 64-Bit Server VM
Java Version: 1.8.0_77-b03
Operating System: Mac OS X
OS Version: 10.13.1
Default Encoding: UTF-8
Language: de
Country: AT
--></g></svg>