<?xml version="1.0" encoding="UTF-8" standalone="no"?><svg xmlns="http://www.w3.org/2000/svg" xmlns:xlink="http://www.w3.org/1999/xlink" contentScriptType="application/ecmascript" contentStyleType="text/css" height="271px" preserveAspectRatio="none" style="width:1199px;height:271px;" version="1.1" viewBox="0 0 1199 271" width="1199px" zoomAndPan="magnify"><defs><filter height="300%" id="f8eceq5w498vw" width="300%" x="-1" y="-1"><feGaussianBlur result="blurOut" stdDeviation="2.0"/><feColorMatrix in="blurOut" result="blurOut2" type="matrix" values="0 0 0 0 0 0 0 0 0 0 0 0 0 0 0 0 0 0 .4 0"/><feOffset dx="4.0" dy="4.0" in="blurOut2" result="blurOut3"/><feBlend in="SourceGraphic" in2="blurOut3" mode="normal"/></filter></defs><g><!--cluster at.fhv.itm3.s2.roundabout.event--><polygon fill="#FFFFFF" filter="url(#f8eceq5w498vw)" points="14,137,245,137,252,159.4883,1177,159.4883,1177,259,14,259,14,137" style="stroke: #000000; stroke-width: 2.0;"/><line style="stroke: #000000; stroke-width: 2.0;" x1="14" x2="252" y1="159.4883" y2="159.4883"/><text fill="#000000" font-family="sans-serif" font-size="14" font-weight="bold" lengthAdjust="spacingAndGlyphs" textLength="225" x="18" y="152.5352">at.fhv.itm3.s2.roundabout.event</text><!--cluster desmoj.core.simulator--><polygon fill="#FFFFFF" filter="url(#f8eceq5w498vw)" points="521,16,686,16,693,38.4883,696,38.4883,696,112,521,112,521,16" style="stroke: #000000; stroke-width: 2.0;"/><line style="stroke: #000000; stroke-width: 2.0;" x1="521" x2="693" y1="38.4883" y2="38.4883"/><text fill="#000000" font-family="sans-serif" font-size="14" font-weight="bold" lengthAdjust="spacingAndGlyphs" textLength="159" x="525" y="31.5352">desmoj.core.simulator</text><!--class at.fhv.itm3.s2.roundabout.event.CarGenerateEvent--><a target="_top" xlink:actuate="onRequest" xlink:href="../../../../../at/fhv/itm3/s2/roundabout/event/CarGenerateEvent.html" xlink:show="new" xlink:title="../../../../../at/fhv/itm3/s2/roundabout/event/CarGenerateEvent.html" xlink:type="simple"><rect fill="#FEFECE" filter="url(#f8eceq5w498vw)" height="73.9102" id="at.fhv.itm3.s2.roundabout.event.CarGenerateEvent" style="stroke: #A80036; stroke-width: 1.5;" width="249" x="919.5" y="170.5"/><ellipse cx="987.75" cy="186.5" fill="#ADD1B2" rx="11" ry="11" style="stroke: #A80036; stroke-width: 1.0;"/><path d="M990.7231,192.1431 Q990.1421,192.4419 989.5029,192.5913 Q988.8638,192.7407 988.1582,192.7407 Q985.6514,192.7407 984.3315,191.0889 Q983.0117,189.437 983.0117,186.3159 Q983.0117,183.1865 984.3315,181.5347 Q985.6514,179.8828 988.1582,179.8828 Q988.8638,179.8828 989.5112,180.0322 Q990.1587,180.1816 990.7231,180.4805 L990.7231,183.2031 Q990.0923,182.6221 989.4988,182.3523 Q988.9053,182.0825 988.2744,182.0825 Q986.9297,182.0825 986.2449,183.1492 Q985.5601,184.2158 985.5601,186.3159 Q985.5601,188.4077 986.2449,189.4744 Q986.9297,190.541 988.2744,190.541 Q988.9053,190.541 989.4988,190.2712 Q990.0923,190.0015 990.7231,189.4204 Z "/><text fill="#000000" font-family="sans-serif" font-size="12" lengthAdjust="spacingAndGlyphs" textLength="104" x="1008.25" y="191.0352">CarGenerateEvent</text><line style="stroke: #A80036; stroke-width: 1.5;" x1="920.5" x2="1167.5" y1="202.5" y2="202.5"/><line style="stroke: #A80036; stroke-width: 1.5;" x1="920.5" x2="1167.5" y1="210.5" y2="210.5"/><ellipse cx="930.5" cy="222.4775" fill="#84BE84" rx="3" ry="3" style="stroke: #038048; stroke-width: 1.0;"/><text fill="#000000" font-family="sans-serif" font-size="11" lengthAdjust="spacingAndGlyphs" textLength="223" x="939.5" y="225.1348">CarGenerateEvent(Model, String, boolean)</text><ellipse cx="930.5" cy="235.4326" fill="#84BE84" rx="3" ry="3" style="stroke: #038048; stroke-width: 1.0;"/><text fill="#000000" font-family="sans-serif" font-size="11" lengthAdjust="spacingAndGlyphs" textLength="138" x="939.5" y="238.0898">eventRoutine(Street): void</text></a><!--class at.fhv.itm3.s2.roundabout.event.RoundaboutEventFactory--><a target="_top" xlink:actuate="onRequest" xlink:href="../../../../../at/fhv/itm3/s2/roundabout/event/RoundaboutEventFactory.html" xlink:show="new" xlink:title="../../../../../at/fhv/itm3/s2/roundabout/event/RoundaboutEventFactory.html" xlink:type="simple"><rect fill="#FEFECE" filter="url(#f8eceq5w498vw)" height="86.8652" id="at.fhv.itm3.s2.roundabout.event.RoundaboutEventFactory" style="stroke: #A80036; stroke-width: 1.5;" width="525" x="359.5" y="164"/><ellipse cx="546.75" cy="180" fill="#ADD1B2" rx="11" ry="11" style="stroke: #A80036; stroke-width: 1.0;"/><path d="M549.7231,185.6431 Q549.1421,185.9419 548.5029,186.0913 Q547.8638,186.2407 547.1582,186.2407 Q544.6514,186.2407 543.3315,184.5889 Q542.0117,182.937 542.0117,179.8159 Q542.0117,176.6865 543.3315,175.0347 Q544.6514,173.3828 547.1582,173.3828 Q547.8638,173.3828 548.5112,173.5322 Q549.1587,173.6816 549.7231,173.9805 L549.7231,176.7031 Q549.0923,176.1221 548.4988,175.8523 Q547.9053,175.5825 547.2744,175.5825 Q545.9297,175.5825 545.2449,176.6492 Q544.5601,177.7158 544.5601,179.8159 Q544.5601,181.9077 545.2449,182.9744 Q545.9297,184.041 547.2744,184.041 Q547.9053,184.041 548.4988,183.7712 Q549.0923,183.5015 549.7231,182.9204 Z "/><text fill="#000000" font-family="sans-serif" font-size="12" lengthAdjust="spacingAndGlyphs" textLength="142" x="567.25" y="184.5352">RoundaboutEventFactory</text><line style="stroke: #A80036; stroke-width: 1.5;" x1="360.5" x2="883.5" y1="196" y2="196"/><line style="stroke: #A80036; stroke-width: 1.5;" x1="360.5" x2="883.5" y1="204" y2="204"/><ellipse cx="370.5" cy="215.9775" fill="#84BE84" rx="3" ry="3" style="stroke: #038048; stroke-width: 1.0;"/><text fill="#000000" font-family="sans-serif" font-size="11" lengthAdjust="spacingAndGlyphs" text-decoration="underline" textLength="211" x="379.5" y="218.6348">getInstance(): RoundaboutEventFactory</text><line style="stroke: #000000; stroke-width: 1.0;" x1="379.5" x2="590.5" y1="220.6348" y2="220.6348"/><ellipse cx="370.5" cy="228.9326" fill="#84BE84" rx="3" ry="3" style="stroke: #038048; stroke-width: 1.0;"/><text fill="#000000" font-family="sans-serif" font-size="11" lengthAdjust="spacingAndGlyphs" textLength="499" x="379.5" y="231.5898">createCarCouldLeaveSectionEvent(RoundaboutSimulationModel): CarCouldLeaveSectionEvent</text><ellipse cx="370.5" cy="241.8877" fill="#84BE84" rx="3" ry="3" style="stroke: #038048; stroke-width: 1.0;"/><text fill="#000000" font-family="sans-serif" font-size="11" lengthAdjust="spacingAndGlyphs" textLength="393" x="379.5" y="244.5449">createCarGenerateEvent(RoundaboutSimulationModel): CarGenerateEvent</text></a><!--class at.fhv.itm3.s2.roundabout.event.CarCouldLeaveSectionEvent--><a target="_top" xlink:actuate="onRequest" xlink:href="../../../../../at/fhv/itm3/s2/roundabout/event/CarCouldLeaveSectionEvent.html" xlink:show="new" xlink:title="../../../../../at/fhv/itm3/s2/roundabout/event/CarCouldLeaveSectionEvent.html" xlink:type="simple"><rect fill="#FEFECE" filter="url(#f8eceq5w498vw)" height="73.9102" id="at.fhv.itm3.s2.roundabout.event.CarCouldLeaveSectionEvent" style="stroke: #A80036; stroke-width: 1.5;" width="302" x="22" y="170.5"/><ellipse cx="90.25" cy="186.5" fill="#ADD1B2" rx="11" ry="11" style="stroke: #A80036; stroke-width: 1.0;"/><path d="M93.2231,192.1431 Q92.6421,192.4419 92.0029,192.5913 Q91.3638,192.7407 90.6582,192.7407 Q88.1514,192.7407 86.8315,191.0889 Q85.5117,189.437 85.5117,186.3159 Q85.5117,183.1865 86.8315,181.5347 Q88.1514,179.8828 90.6582,179.8828 Q91.3638,179.8828 92.0112,180.0322 Q92.6587,180.1816 93.2231,180.4805 L93.2231,183.2031 Q92.5923,182.6221 91.9988,182.3523 Q91.4053,182.0825 90.7744,182.0825 Q89.4297,182.0825 88.7449,183.1492 Q88.0601,184.2158 88.0601,186.3159 Q88.0601,188.4077 88.7449,189.4744 Q89.4297,190.541 90.7744,190.541 Q91.4053,190.541 91.9988,190.2712 Q92.5923,190.0015 93.2231,189.4204 Z "/><text fill="#000000" font-family="sans-serif" font-size="12" lengthAdjust="spacingAndGlyphs" textLength="157" x="110.75" y="191.0352">CarCouldLeaveSectionEvent</text><line style="stroke: #A80036; stroke-width: 1.5;" x1="23" x2="323" y1="202.5" y2="202.5"/><line style="stroke: #A80036; stroke-width: 1.5;" x1="23" x2="323" y1="210.5" y2="210.5"/><ellipse cx="33" cy="222.4775" fill="#84BE84" rx="3" ry="3" style="stroke: #038048; stroke-width: 1.0;"/><text fill="#000000" font-family="sans-serif" font-size="11" lengthAdjust="spacingAndGlyphs" textLength="276" x="42" y="225.1348">CarCouldLeaveSectionEvent(Model, String, boolean)</text><ellipse cx="33" cy="235.4326" fill="#84BE84" rx="3" ry="3" style="stroke: #038048; stroke-width: 1.0;"/><text fill="#000000" font-family="sans-serif" font-size="11" lengthAdjust="spacingAndGlyphs" textLength="138" x="42" y="238.0898">eventRoutine(Street): void</text></a><!--class desmoj.core.simulator.Event--><rect fill="#FEFECE" filter="url(#f8eceq5w498vw)" height="60.9551" id="desmoj.core.simulator.Event" style="stroke: #A80036; stroke-width: 1.5;" width="139" x="538.5" y="43"/><ellipse cx="582.75" cy="59" fill="#A9DCDF" rx="11" ry="11" style="stroke: #A80036; stroke-width: 1.0;"/><path d="M582.8633,54.3481 L581.7095,59.4199 L584.0254,59.4199 Z M581.3691,52.1069 L584.3657,52.1069 L587.7109,64.5 L585.2622,64.5 L584.4985,61.437 L581.2197,61.437 L580.4727,64.5 L578.0239,64.5 Z "/><text fill="#000000" font-family="sans-serif" font-size="12" font-style="italic" lengthAdjust="spacingAndGlyphs" textLength="31" x="603.25" y="63.5352">Event</text><rect fill="#FFFFFF" height="16.1328" style="stroke: #000000; stroke-width: 1.0; stroke-dasharray: 2.0,2.0;" width="9" x="671.5" y="40"/><text fill="#000000" font-family="sans-serif" font-size="12" font-style="italic" lengthAdjust="spacingAndGlyphs" textLength="7" x="672.5" y="52.6016">E</text><line style="stroke: #A80036; stroke-width: 1.5;" x1="539.5" x2="676.5" y1="75" y2="75"/><line style="stroke: #A80036; stroke-width: 1.5;" x1="539.5" x2="676.5" y1="83" y2="83"/><ellipse cx="549.5" cy="94.9775" fill="#84BE84" rx="3" ry="3" style="stroke: #038048; stroke-width: 1.0;"/><text fill="#000000" font-family="sans-serif" font-size="11" font-style="italic" lengthAdjust="spacingAndGlyphs" textLength="113" x="558.5" y="97.6348">eventRoutine(E): void</text><!--link desmoj.core.simulator.Event to at.fhv.itm3.s2.roundabout.event.CarGenerateEvent--><path d="M697.6781,86.9169 C756.7409,97.194 835.2078,113.6154 902,137 C927.5881,145.9587 954.5077,158.4605 977.946,170.4526 " fill="none" id="desmoj.core.simulator.Event-at.fhv.itm3.s2.roundabout.event.CarGenerateEvent" style="stroke: #A80036; stroke-width: 1.0;"/><polygon fill="none" points="696.2034,93.7671,677.6471,83.5366,698.533,79.9622,696.2034,93.7671" style="stroke: #A80036; stroke-width: 1.0;"/><!--link desmoj.core.simulator.Event to at.fhv.itm3.s2.roundabout.event.CarCouldLeaveSectionEvent--><path d="M518.3491,91.1366 C466.2943,102.3079 399.7897,118.1837 342,137 C312.9803,146.4488 281.9597,158.7251 254.5199,170.3794 " fill="none" id="desmoj.core.simulator.Event-at.fhv.itm3.s2.roundabout.event.CarCouldLeaveSectionEvent" style="stroke: #A80036; stroke-width: 1.0;"/><polygon fill="none" points="517.2473,84.2151,538.2609,86.9407,520.1341,97.9143,517.2473,84.2151" style="stroke: #A80036; stroke-width: 1.0;"/><!--
@startuml

    namespace at.fhv.itm3.s2.roundabout.event {

        class CarGenerateEvent [[../../../../../at/fhv/itm3/s2/roundabout/event/CarGenerateEvent.html]] {
            +CarGenerateEvent(Model, String, boolean)
            +eventRoutine(Street): void
        }

        class RoundaboutEventFactory [[../../../../../at/fhv/itm3/s2/roundabout/event/RoundaboutEventFactory.html]] {
            {static} +getInstance(): RoundaboutEventFactory
            +createCarCouldLeaveSectionEvent(RoundaboutSimulationModel): CarCouldLeaveSectionEvent
            +createCarGenerateEvent(RoundaboutSimulationModel): CarGenerateEvent
        }

        class CarCouldLeaveSectionEvent [[../../../../../at/fhv/itm3/s2/roundabout/event/CarCouldLeaveSectionEvent.html]] {
            +CarCouldLeaveSectionEvent(Model, String, boolean)
            +eventRoutine(Street): void
        }

        abstract class desmoj.core.simulator.Event<E> {
            {abstract} +eventRoutine(E): void
        }
        desmoj.core.simulator.Event <|- - CarGenerateEvent

        desmoj.core.simulator.Event <|- - CarCouldLeaveSectionEvent

    }

@enduml

PlantUML version 1.2017.19(Sun Nov 12 12:46:22 CET 2017)
(APACHE source distribution)
Java Runtime: Java(TM) SE Runtime Environment
JVM: Java HotSpot(TM) 64-Bit Server VM
Java Version: 1.8.0_77-b03
Operating System: Mac OS X
OS Version: 10.13.1
Default Encoding: UTF-8
Language: de
Country: AT
--></g></svg>