<?xml version="1.0" encoding="UTF-8" standalone="no"?><svg xmlns="http://www.w3.org/2000/svg" xmlns:xlink="http://www.w3.org/1999/xlink" contentScriptType="application/ecmascript" contentStyleType="text/css" height="1286px" preserveAspectRatio="none" style="width:996px;height:1286px;" version="1.1" viewBox="0 0 996 1286" width="996px" zoomAndPan="magnify"><defs><filter height="300%" id="f1u9si3mjj88vp" width="300%" x="-1" y="-1"><feGaussianBlur result="blurOut" stdDeviation="2.0"/><feColorMatrix in="blurOut" result="blurOut2" type="matrix" values="0 0 0 0 0 0 0 0 0 0 0 0 0 0 0 0 0 0 .4 0"/><feOffset dx="4.0" dy="4.0" in="blurOut2" result="blurOut3"/><feBlend in="SourceGraphic" in2="blurOut3" mode="normal"/></filter></defs><g><!--cluster at.fhv.itm3.s2.roundabout.api.entity--><polygon fill="#FFFFFF" filter="url(#f1u9si3mjj88vp)" points="354,16,613,16,620,38.4883,974,38.4883,974,1274,354,1274,354,16" style="stroke: #000000; stroke-width: 2.0;"/><line style="stroke: #000000; stroke-width: 2.0;" x1="354" x2="620" y1="38.4883" y2="38.4883"/><text fill="#000000" font-family="sans-serif" font-size="14" font-weight="bold" lengthAdjust="spacingAndGlyphs" textLength="253" x="358" y="31.5352">at.fhv.itm3.s2.roundabout.api.entity</text><!--cluster at.fhv.itm14.trafsim.model.entities--><polygon fill="#FFFFFF" filter="url(#f1u9si3mjj88vp)" points="14,512,268,512,275,534.4883,335,534.4883,335,595,14,595,14,512" style="stroke: #000000; stroke-width: 2.0;"/><line style="stroke: #000000; stroke-width: 2.0;" x1="14" x2="275" y1="534.4883" y2="534.4883"/><text fill="#000000" font-family="sans-serif" font-size="14" font-weight="bold" lengthAdjust="spacingAndGlyphs" textLength="248" x="18" y="527.5352">at.fhv.itm14.trafsim.model.entities</text><!--class at.fhv.itm3.s2.roundabout.api.entity.IDriverBehaviour--><a target="_top" xlink:actuate="onRequest" xlink:href="../../../../../at/fhv/itm3/s2/roundabout/api/entity/IDriverBehaviour.html" xlink:show="new" xlink:title="../../../../../at/fhv/itm3/s2/roundabout/api/entity/IDriverBehaviour.html" xlink:type="simple"><rect fill="#FEFECE" filter="url(#f1u9si3mjj88vp)" height="151.6406" id="at.fhv.itm3.s2.roundabout.api.entity.IDriverBehaviour" style="stroke: #A80036; stroke-width: 1.5;" width="242" x="477" y="321"/><ellipse cx="546.75" cy="337" fill="#B4A7E5" rx="11" ry="11" style="stroke: #A80036; stroke-width: 1.0;"/><path d="M542.6777,332.7651 L542.6777,330.6069 L550.0571,330.6069 L550.0571,332.7651 L547.5918,332.7651 L547.5918,340.8418 L550.0571,340.8418 L550.0571,343 L542.6777,343 L542.6777,340.8418 L545.1431,340.8418 L545.1431,332.7651 Z "/><text fill="#000000" font-family="sans-serif" font-size="12" font-style="italic" lengthAdjust="spacingAndGlyphs" textLength="94" x="567.25" y="341.5352">IDriverBehaviour</text><line style="stroke: #A80036; stroke-width: 1.5;" x1="478" x2="718" y1="353" y2="353"/><line style="stroke: #A80036; stroke-width: 1.5;" x1="478" x2="718" y1="361" y2="361"/><ellipse cx="488" cy="372.9775" fill="#84BE84" rx="3" ry="3" style="stroke: #038048; stroke-width: 1.0;"/><text fill="#000000" font-family="sans-serif" font-size="11" font-style="italic" lengthAdjust="spacingAndGlyphs" textLength="100" x="497" y="375.6348">getSpeed(): double</text><ellipse cx="488" cy="385.9326" fill="#84BE84" rx="3" ry="3" style="stroke: #038048; stroke-width: 1.0;"/><text fill="#000000" font-family="sans-serif" font-size="11" font-style="italic" lengthAdjust="spacingAndGlyphs" textLength="122" x="497" y="388.5898">setSpeed(double): void</text><ellipse cx="488" cy="398.8877" fill="#84BE84" rx="3" ry="3" style="stroke: #038048; stroke-width: 1.0;"/><text fill="#000000" font-family="sans-serif" font-size="11" font-style="italic" lengthAdjust="spacingAndGlyphs" textLength="191" x="497" y="401.5449">getMinDistanceToNextCar(): double</text><ellipse cx="488" cy="411.8428" fill="#84BE84" rx="3" ry="3" style="stroke: #038048; stroke-width: 1.0;"/><text fill="#000000" font-family="sans-serif" font-size="11" font-style="italic" lengthAdjust="spacingAndGlyphs" textLength="213" x="497" y="414.5">setMinDistanceToNextCar(double): void</text><ellipse cx="488" cy="424.7979" fill="#84BE84" rx="3" ry="3" style="stroke: #038048; stroke-width: 1.0;"/><text fill="#000000" font-family="sans-serif" font-size="11" font-style="italic" lengthAdjust="spacingAndGlyphs" textLength="194" x="497" y="427.4551">getMaxDistanceToNextCar(): double</text><ellipse cx="488" cy="437.7529" fill="#84BE84" rx="3" ry="3" style="stroke: #038048; stroke-width: 1.0;"/><text fill="#000000" font-family="sans-serif" font-size="11" font-style="italic" lengthAdjust="spacingAndGlyphs" textLength="216" x="497" y="440.4102">setMaxDistanceToNextCar(double): void</text><ellipse cx="488" cy="450.708" fill="#84BE84" rx="3" ry="3" style="stroke: #038048; stroke-width: 1.0;"/><text fill="#000000" font-family="sans-serif" font-size="11" font-style="italic" lengthAdjust="spacingAndGlyphs" textLength="135" x="497" y="453.3652">getMergeFactor(): double</text><ellipse cx="488" cy="463.6631" fill="#84BE84" rx="3" ry="3" style="stroke: #038048; stroke-width: 1.0;"/><text fill="#000000" font-family="sans-serif" font-size="11" font-style="italic" lengthAdjust="spacingAndGlyphs" textLength="157" x="497" y="466.3203">setMergeFactor(double): void</text></a><!--class at.fhv.itm3.s2.roundabout.api.entity.IStreetConnector--><a target="_top" xlink:actuate="onRequest" xlink:href="../../../../../at/fhv/itm3/s2/roundabout/api/entity/IStreetConnector.html" xlink:show="new" xlink:title="../../../../../at/fhv/itm3/s2/roundabout/api/entity/IStreetConnector.html" xlink:type="simple"><rect fill="#FEFECE" filter="url(#f1u9si3mjj88vp)" height="48" id="at.fhv.itm3.s2.roundabout.api.entity.IStreetConnector" style="stroke: #A80036; stroke-width: 1.5;" width="126" x="508" y="1218"/><ellipse cx="523" cy="1234" fill="#B4A7E5" rx="11" ry="11" style="stroke: #A80036; stroke-width: 1.0;"/><path d="M518.9277,1229.7651 L518.9277,1227.6069 L526.3071,1227.6069 L526.3071,1229.7651 L523.8418,1229.7651 L523.8418,1237.8418 L526.3071,1237.8418 L526.3071,1240 L518.9277,1240 L518.9277,1237.8418 L521.3931,1237.8418 L521.3931,1229.7651 Z "/><text fill="#000000" font-family="sans-serif" font-size="12" font-style="italic" lengthAdjust="spacingAndGlyphs" textLength="94" x="537" y="1238.5352">IStreetConnector</text><line style="stroke: #A80036; stroke-width: 1.5;" x1="509" x2="633" y1="1250" y2="1250"/><line style="stroke: #A80036; stroke-width: 1.5;" x1="509" x2="633" y1="1258" y2="1258"/></a><!--class at.fhv.itm3.s2.roundabout.api.entity.AbstractSource--><a target="_top" xlink:actuate="onRequest" xlink:href="../../../../../at/fhv/itm3/s2/roundabout/api/entity/AbstractSource.html" xlink:show="new" xlink:title="../../../../../at/fhv/itm3/s2/roundabout/api/entity/AbstractSource.html" xlink:type="simple"><rect fill="#FEFECE" filter="url(#f1u9si3mjj88vp)" height="73.9102" id="at.fhv.itm3.s2.roundabout.api.entity.AbstractSource" style="stroke: #A80036; stroke-width: 1.5;" width="236" x="399" y="648"/><ellipse cx="469.75" cy="664" fill="#A9DCDF" rx="11" ry="11" style="stroke: #A80036; stroke-width: 1.0;"/><path d="M469.8633,659.3481 L468.7095,664.4199 L471.0254,664.4199 Z M468.3691,657.1069 L471.3657,657.1069 L474.7109,669.5 L472.2622,669.5 L471.4985,666.437 L468.2197,666.437 L467.4727,669.5 L465.0239,669.5 Z "/><text fill="#000000" font-family="sans-serif" font-size="12" font-style="italic" lengthAdjust="spacingAndGlyphs" textLength="86" x="490.25" y="668.5352">AbstractSource</text><line style="stroke: #A80036; stroke-width: 1.5;" x1="400" x2="634" y1="680" y2="680"/><line style="stroke: #A80036; stroke-width: 1.5;" x1="400" x2="634" y1="688" y2="688"/><ellipse cx="410" cy="699.9775" fill="#84BE84" rx="3" ry="3" style="stroke: #038048; stroke-width: 1.0;"/><text fill="#000000" font-family="sans-serif" font-size="11" lengthAdjust="spacingAndGlyphs" textLength="210" x="419" y="702.6348">AbstractSource(Model, String, boolean)</text><ellipse cx="410" cy="712.9326" fill="#84BE84" rx="3" ry="3" style="stroke: #038048; stroke-width: 1.0;"/><text fill="#000000" font-family="sans-serif" font-size="11" font-style="italic" lengthAdjust="spacingAndGlyphs" textLength="146" x="419" y="715.5898">startGeneratingCars(): void</text></a><!--class at.fhv.itm3.s2.roundabout.api.entity.Street--><a target="_top" xlink:actuate="onRequest" xlink:href="../../../../../at/fhv/itm3/s2/roundabout/api/entity/Street.html" xlink:show="new" xlink:title="../../../../../at/fhv/itm3/s2/roundabout/api/entity/Street.html" xlink:type="simple"><rect fill="#FEFECE" filter="url(#f1u9si3mjj88vp)" height="203.4609" id="at.fhv.itm3.s2.roundabout.api.entity.Street" style="stroke: #A80036; stroke-width: 1.5;" width="248" x="477" y="861"/><ellipse cx="580.25" cy="877" fill="#A9DCDF" rx="11" ry="11" style="stroke: #A80036; stroke-width: 1.0;"/><path d="M580.3633,872.3481 L579.2095,877.4199 L581.5254,877.4199 Z M578.8691,870.1069 L581.8657,870.1069 L585.2109,882.5 L582.7622,882.5 L581.9985,879.437 L578.7197,879.437 L577.9727,882.5 L575.5239,882.5 Z "/><text fill="#000000" font-family="sans-serif" font-size="12" font-style="italic" lengthAdjust="spacingAndGlyphs" textLength="33" x="600.75" y="881.5352">Street</text><line style="stroke: #A80036; stroke-width: 1.5;" x1="478" x2="724" y1="893" y2="893"/><line style="stroke: #A80036; stroke-width: 1.5;" x1="478" x2="724" y1="901" y2="901"/><ellipse cx="488" cy="912.9775" fill="#84BE84" rx="3" ry="3" style="stroke: #038048; stroke-width: 1.0;"/><text fill="#000000" font-family="sans-serif" font-size="11" lengthAdjust="spacingAndGlyphs" textLength="158" x="497" y="915.6348">Street(Model, String, boolean)</text><ellipse cx="488" cy="925.9326" fill="#84BE84" rx="3" ry="3" style="stroke: #038048; stroke-width: 1.0;"/><text fill="#000000" font-family="sans-serif" font-size="11" font-style="italic" lengthAdjust="spacingAndGlyphs" textLength="105" x="497" y="928.5898">getLength(): double</text><ellipse cx="488" cy="938.8877" fill="#84BE84" rx="3" ry="3" style="stroke: #038048; stroke-width: 1.0;"/><text fill="#000000" font-family="sans-serif" font-size="11" font-style="italic" lengthAdjust="spacingAndGlyphs" textLength="98" x="497" y="941.5449">addCar(ICar): void</text><ellipse cx="488" cy="951.8428" fill="#84BE84" rx="3" ry="3" style="stroke: #038048; stroke-width: 1.0;"/><text fill="#000000" font-family="sans-serif" font-size="11" font-style="italic" lengthAdjust="spacingAndGlyphs" textLength="119" x="497" y="954.5">removeFirstCar(): ICar</text><ellipse cx="488" cy="964.7979" fill="#84BE84" rx="3" ry="3" style="stroke: #038048; stroke-width: 1.0;"/><text fill="#000000" font-family="sans-serif" font-size="11" font-style="italic" lengthAdjust="spacingAndGlyphs" textLength="99" x="497" y="967.4551">isEmpty(): boolean</text><ellipse cx="488" cy="977.7529" fill="#84BE84" rx="3" ry="3" style="stroke: #038048; stroke-width: 1.0;"/><text fill="#000000" font-family="sans-serif" font-size="11" font-style="italic" lengthAdjust="spacingAndGlyphs" textLength="205" x="497" y="980.4102">getCarPositions(): Map&lt;ICar, Double&gt;</text><ellipse cx="488" cy="990.708" fill="#84BE84" rx="3" ry="3" style="stroke: #038048; stroke-width: 1.0;"/><text fill="#000000" font-family="sans-serif" font-size="11" font-style="italic" lengthAdjust="spacingAndGlyphs" textLength="162" x="497" y="993.3652">updateAllCarsPositions(): void</text><ellipse cx="488" cy="1003.6631" fill="#84BE84" rx="3" ry="3" style="stroke: #038048; stroke-width: 1.0;"/><text fill="#000000" font-family="sans-serif" font-size="11" font-style="italic" lengthAdjust="spacingAndGlyphs" textLength="172" x="497" y="1006.3203">isFirstCarOnExitPoint(): boolean</text><ellipse cx="488" cy="1016.6182" fill="#84BE84" rx="3" ry="3" style="stroke: #038048; stroke-width: 1.0;"/><text fill="#000000" font-family="sans-serif" font-size="11" font-style="italic" lengthAdjust="spacingAndGlyphs" textLength="222" x="497" y="1019.2754">firstCarCouldEnterNextSection(): boolean</text><ellipse cx="488" cy="1029.5732" fill="#84BE84" rx="3" ry="3" style="stroke: #038048; stroke-width: 1.0;"/><text fill="#000000" font-family="sans-serif" font-size="11" font-style="italic" lengthAdjust="spacingAndGlyphs" textLength="175" x="497" y="1032.2305">isEnoughSpace(double): boolean</text><ellipse cx="488" cy="1042.5283" fill="#84BE84" rx="3" ry="3" style="stroke: #038048; stroke-width: 1.0;"/><text fill="#000000" font-family="sans-serif" font-size="11" font-style="italic" lengthAdjust="spacingAndGlyphs" textLength="187" x="497" y="1045.1855">moveFirstCarToNextSection(): void</text><ellipse cx="488" cy="1055.4834" fill="#84BE84" rx="3" ry="3" style="stroke: #038048; stroke-width: 1.0;"/><text fill="#000000" font-family="sans-serif" font-size="11" font-style="italic" lengthAdjust="spacingAndGlyphs" textLength="137" x="497" y="1058.1406">getNrOfEnteredCars(): int</text></a><!--class at.fhv.itm3.s2.roundabout.api.entity.IRoute--><a target="_top" xlink:actuate="onRequest" xlink:href="../../../../../at/fhv/itm3/s2/roundabout/api/entity/IRoute.html" xlink:show="new" xlink:title="../../../../../at/fhv/itm3/s2/roundabout/api/entity/IRoute.html" xlink:type="simple"><rect fill="#FEFECE" filter="url(#f1u9si3mjj88vp)" height="125.7305" id="at.fhv.itm3.s2.roundabout.api.entity.IRoute" style="stroke: #A80036; stroke-width: 1.5;" width="203" x="754.5" y="334"/><ellipse cx="833.75" cy="350" fill="#B4A7E5" rx="11" ry="11" style="stroke: #A80036; stroke-width: 1.0;"/><path d="M829.6777,345.7651 L829.6777,343.6069 L837.0571,343.6069 L837.0571,345.7651 L834.5918,345.7651 L834.5918,353.8418 L837.0571,353.8418 L837.0571,356 L829.6777,356 L829.6777,353.8418 L832.1431,353.8418 L832.1431,345.7651 Z "/><text fill="#000000" font-family="sans-serif" font-size="12" font-style="italic" lengthAdjust="spacingAndGlyphs" textLength="36" x="854.25" y="354.5352">IRoute</text><line style="stroke: #A80036; stroke-width: 1.5;" x1="755.5" x2="956.5" y1="366" y2="366"/><line style="stroke: #A80036; stroke-width: 1.5;" x1="755.5" x2="956.5" y1="374" y2="374"/><ellipse cx="765.5" cy="385.9775" fill="#84BE84" rx="3" ry="3" style="stroke: #038048; stroke-width: 1.0;"/><text fill="#000000" font-family="sans-serif" font-size="11" font-style="italic" lengthAdjust="spacingAndGlyphs" textLength="127" x="774.5" y="388.6348">getSectionAt(int): Street</text><ellipse cx="765.5" cy="398.9326" fill="#84BE84" rx="3" ry="3" style="stroke: #038048; stroke-width: 1.0;"/><text fill="#000000" font-family="sans-serif" font-size="11" font-style="italic" lengthAdjust="spacingAndGlyphs" textLength="146" x="774.5" y="401.5898">getNumberOfSections(): int</text><ellipse cx="765.5" cy="411.8877" fill="#84BE84" rx="3" ry="3" style="stroke: #038048; stroke-width: 1.0;"/><text fill="#000000" font-family="sans-serif" font-size="11" font-style="italic" lengthAdjust="spacingAndGlyphs" textLength="127" x="774.5" y="414.5449">addSection(Street): void</text><ellipse cx="765.5" cy="424.8428" fill="#84BE84" rx="3" ry="3" style="stroke: #038048; stroke-width: 1.0;"/><text fill="#000000" font-family="sans-serif" font-size="11" font-style="italic" lengthAdjust="spacingAndGlyphs" textLength="99" x="774.5" y="427.5">isEmpty(): boolean</text><ellipse cx="765.5" cy="437.7979" fill="#84BE84" rx="3" ry="3" style="stroke: #038048; stroke-width: 1.0;"/><text fill="#000000" font-family="sans-serif" font-size="11" font-style="italic" lengthAdjust="spacingAndGlyphs" textLength="158" x="774.5" y="440.4551">getIndexOfSection(Street): int</text><ellipse cx="765.5" cy="450.7529" fill="#84BE84" rx="3" ry="3" style="stroke: #038048; stroke-width: 1.0;"/><text fill="#000000" font-family="sans-serif" font-size="11" font-style="italic" lengthAdjust="spacingAndGlyphs" textLength="177" x="774.5" y="453.4102">addSource(AbstractSource): void</text></a><!--class at.fhv.itm3.s2.roundabout.api.entity.ICar--><a target="_top" xlink:actuate="onRequest" xlink:href="../../../../../at/fhv/itm3/s2/roundabout/api/entity/ICar.html" xlink:show="new" xlink:title="../../../../../at/fhv/itm3/s2/roundabout/api/entity/ICar.html" xlink:type="simple"><rect fill="#FEFECE" filter="url(#f1u9si3mjj88vp)" height="138.6855" id="at.fhv.itm3.s2.roundabout.api.entity.ICar" style="stroke: #A80036; stroke-width: 1.5;" width="262" x="393" y="43"/><ellipse cx="508.25" cy="59" fill="#B4A7E5" rx="11" ry="11" style="stroke: #A80036; stroke-width: 1.0;"/><path d="M504.1777,54.7651 L504.1777,52.6069 L511.5571,52.6069 L511.5571,54.7651 L509.0918,54.7651 L509.0918,62.8418 L511.5571,62.8418 L511.5571,65 L504.1777,65 L504.1777,62.8418 L506.6431,62.8418 L506.6431,54.7651 Z "/><text fill="#000000" font-family="sans-serif" font-size="12" font-style="italic" lengthAdjust="spacingAndGlyphs" textLength="23" x="528.75" y="63.5352">ICar</text><line style="stroke: #A80036; stroke-width: 1.5;" x1="394" x2="654" y1="75" y2="75"/><line style="stroke: #A80036; stroke-width: 1.5;" x1="394" x2="654" y1="83" y2="83"/><ellipse cx="404" cy="94.9775" fill="#84BE84" rx="3" ry="3" style="stroke: #038048; stroke-width: 1.0;"/><text fill="#000000" font-family="sans-serif" font-size="11" font-style="italic" lengthAdjust="spacingAndGlyphs" textLength="154" x="413" y="97.6348">getLastUpdateTime(): double</text><ellipse cx="404" cy="107.9326" fill="#84BE84" rx="3" ry="3" style="stroke: #038048; stroke-width: 1.0;"/><text fill="#000000" font-family="sans-serif" font-size="11" font-style="italic" lengthAdjust="spacingAndGlyphs" textLength="176" x="413" y="110.5898">setLastUpdateTime(double): void</text><ellipse cx="404" cy="120.8877" fill="#84BE84" rx="3" ry="3" style="stroke: #038048; stroke-width: 1.0;"/><text fill="#000000" font-family="sans-serif" font-size="11" font-style="italic" lengthAdjust="spacingAndGlyphs" textLength="236" x="413" y="123.5449">getTimeToTraverseCurrentSection(): double</text><ellipse cx="404" cy="133.8428" fill="#84BE84" rx="3" ry="3" style="stroke: #038048; stroke-width: 1.0;"/><text fill="#000000" font-family="sans-serif" font-size="11" font-style="italic" lengthAdjust="spacingAndGlyphs" textLength="225" x="413" y="136.5">getTimeToTraverseSection(Street): double</text><ellipse cx="404" cy="146.7979" fill="#84BE84" rx="3" ry="3" style="stroke: #038048; stroke-width: 1.0;"/><text fill="#000000" font-family="sans-serif" font-size="11" font-style="italic" lengthAdjust="spacingAndGlyphs" textLength="149" x="413" y="149.4551">getTransitionTime(): double</text><ellipse cx="404" cy="159.7529" fill="#84BE84" rx="3" ry="3" style="stroke: #038048; stroke-width: 1.0;"/><text fill="#000000" font-family="sans-serif" font-size="11" font-style="italic" lengthAdjust="spacingAndGlyphs" textLength="105" x="413" y="162.4102">getLength(): double</text><ellipse cx="404" cy="172.708" fill="#84BE84" rx="3" ry="3" style="stroke: #038048; stroke-width: 1.0;"/><text fill="#000000" font-family="sans-serif" font-size="11" font-style="italic" lengthAdjust="spacingAndGlyphs" textLength="159" x="413" y="175.3652">traverseToNextSection(): void</text></a><!--class at.fhv.itm14.trafsim.model.entities.AbstractProducer--><rect fill="#FEFECE" filter="url(#f1u9si3mjj88vp)" height="48" id="at.fhv.itm14.trafsim.model.entities.AbstractProducer" style="stroke: #A80036; stroke-width: 1.5;" width="132" x="195" y="539"/><ellipse cx="210" cy="555" fill="#A9DCDF" rx="11" ry="11" style="stroke: #A80036; stroke-width: 1.0;"/><path d="M210.1133,550.3481 L208.9595,555.4199 L211.2754,555.4199 Z M208.6191,548.1069 L211.6157,548.1069 L214.9609,560.5 L212.5122,560.5 L211.7485,557.437 L208.4697,557.437 L207.7227,560.5 L205.2739,560.5 Z "/><text fill="#000000" font-family="sans-serif" font-size="12" font-style="italic" lengthAdjust="spacingAndGlyphs" textLength="100" x="224" y="559.5352">AbstractProducer</text><line style="stroke: #A80036; stroke-width: 1.5;" x1="196" x2="326" y1="571" y2="571"/><line style="stroke: #A80036; stroke-width: 1.5;" x1="196" x2="326" y1="579" y2="579"/><!--class at.fhv.itm14.trafsim.model.entities.AbstractConsumer--><rect fill="#FEFECE" filter="url(#f1u9si3mjj88vp)" height="48" id="at.fhv.itm14.trafsim.model.entities.AbstractConsumer" style="stroke: #A80036; stroke-width: 1.5;" width="138" x="22" y="539"/><ellipse cx="37" cy="555" fill="#A9DCDF" rx="11" ry="11" style="stroke: #A80036; stroke-width: 1.0;"/><path d="M37.1133,550.3481 L35.9595,555.4199 L38.2754,555.4199 Z M35.6191,548.1069 L38.6157,548.1069 L41.9609,560.5 L39.5122,560.5 L38.7485,557.437 L35.4697,557.437 L34.7227,560.5 L32.2739,560.5 Z "/><text fill="#000000" font-family="sans-serif" font-size="12" font-style="italic" lengthAdjust="spacingAndGlyphs" textLength="106" x="51" y="559.5352">AbstractConsumer</text><line style="stroke: #A80036; stroke-width: 1.5;" x1="23" x2="159" y1="571" y2="571"/><line style="stroke: #A80036; stroke-width: 1.5;" x1="23" x2="159" y1="579" y2="579"/><!--link at.fhv.itm14.trafsim.model.entities.AbstractProducer to at.fhv.itm3.s2.roundabout.api.entity.AbstractSource--><path d="M330.0221,595.8933 C363.7528,611.9681 404.4765,631.3755 439.2957,647.9691 " fill="none" id="at.fhv.itm14.trafsim.model.entities.AbstractProducer-at.fhv.itm3.s2.roundabout.api.entity.AbstractSource" style="stroke: #A80036; stroke-width: 1.0;"/><polygon fill="none" points="326.6205,602.0266,311.5774,587.1033,332.6434,589.3884,326.6205,602.0266" style="stroke: #A80036; stroke-width: 1.0;"/><!--link at.fhv.itm14.trafsim.model.entities.AbstractConsumer to at.fhv.itm3.s2.roundabout.api.entity.Street--><path d="M123.4246,603.0526 C170.1395,659.0009 261.0265,761.4851 354,831 C391.6431,859.1452 436.1125,884.7988 476.8719,905.8242 " fill="none" id="at.fhv.itm14.trafsim.model.entities.AbstractConsumer-at.fhv.itm3.s2.roundabout.api.entity.Street" style="stroke: #A80036; stroke-width: 1.0;"/><polygon fill="none" points="117.7298,607.1498,110.3916,587.2713,128.5245,598.2349,117.7298,607.1498" style="stroke: #A80036; stroke-width: 1.0;"/><!--link at.fhv.itm3.s2.roundabout.api.entity.IStreetConnector to at.fhv.itm3.s2.roundabout.api.entity.Street--><path d="M590.2539,1217.9887 C601.9549,1201.803 615.7984,1179.3897 622,1157 C629.7561,1128.9982 629.983,1097.9904 626.8468,1069.113 " fill="none" id="at.fhv.itm3.s2.roundabout.api.entity.IStreetConnector-at.fhv.itm3.s2.roundabout.api.entity.Street" style="stroke: #A80036; stroke-width: 1.0;"/><polygon fill="#A80036" points="626.2696,1064.1236,623.3306,1073.5237,626.8443,1069.0905,631.2776,1072.6042,626.2696,1064.1236" style="stroke: #A80036; stroke-width: 1.0;"/><text fill="#000000" font-family="sans-serif" font-size="13" lengthAdjust="spacingAndGlyphs" textLength="81" x="641" y="1138.5684">nextSections</text><text fill="#000000" font-family="sans-serif" font-size="13" lengthAdjust="spacingAndGlyphs" textLength="107" x="628" y="1153.8789">previousSections</text><text fill="#000000" font-family="sans-serif" font-size="13" lengthAdjust="spacingAndGlyphs" textLength="6" x="621.9746" y="1085.041">*</text><!--link at.fhv.itm3.s2.roundabout.api.entity.Street to at.fhv.itm3.s2.roundabout.api.entity.IStreetConnector--><path d="M491.8269,1064.2953 C477.5999,1083.021 465.1551,1103.5009 457,1125 C442.8013,1162.4315 478.924,1194.1573 514.1893,1215.0884 " fill="none" id="at.fhv.itm3.s2.roundabout.api.entity.Street-at.fhv.itm3.s2.roundabout.api.entity.IStreetConnector" style="stroke: #A80036; stroke-width: 1.0;"/><polygon fill="#A80036" points="518.9295,1217.8419,513.1566,1209.8623,514.6061,1215.3303,509.1381,1216.7798,518.9295,1217.8419" style="stroke: #A80036; stroke-width: 1.0;"/><text fill="#000000" font-family="sans-serif" font-size="13" lengthAdjust="spacingAndGlyphs" textLength="129" x="471" y="1138.5684">nextStreetConnector</text><text fill="#000000" font-family="sans-serif" font-size="13" lengthAdjust="spacingAndGlyphs" textLength="155" x="458" y="1153.8789">previousStreetConnector</text><!--link at.fhv.itm3.s2.roundabout.api.entity.AbstractSource to at.fhv.itm3.s2.roundabout.api.entity.Street--><path d="M528.2415,722.1369 C538.5929,756.3338 554.4624,808.7598 568.7419,855.933 " fill="none" id="at.fhv.itm3.s2.roundabout.api.entity.AbstractSource-at.fhv.itm3.s2.roundabout.api.entity.Street" style="stroke: #A80036; stroke-width: 1.0;"/><polygon fill="#A80036" points="570.2072,860.7738,571.428,851.0009,568.7585,855.9883,563.7711,853.3188,570.2072,860.7738" style="stroke: #A80036; stroke-width: 1.0;"/><text fill="#000000" font-family="sans-serif" font-size="13" lengthAdjust="spacingAndGlyphs" textLength="101" x="552" y="796.5684">connectedStreet</text><!--link at.fhv.itm3.s2.roundabout.api.entity.Street to at.fhv.itm3.s2.roundabout.api.entity.ICar--><path d="M651.3174,860.9315 C675.9743,795.6208 692.7396,711.4295 653,648 C627.7418,607.6846 595.6532,626.4985 560,595 C525.4932,564.5143 527.9082,547.0086 498,512 C482.2804,493.5997 469.1159,495.4183 460,473 C434.5534,410.4203 449.9773,387.8079 460,321 C466.8288,275.4814 481.6026,226.18 495.2366,186.9513 " fill="none" id="at.fhv.itm3.s2.roundabout.api.entity.Street-at.fhv.itm3.s2.roundabout.api.entity.ICar" style="stroke: #A80036; stroke-width: 1.0;"/><polygon fill="#A80036" points="496.893,182.2182,490.1447,189.3918,495.2414,186.9375,497.6956,192.0343,496.893,182.2182" style="stroke: #A80036; stroke-width: 1.0;"/><text fill="#000000" font-family="sans-serif" font-size="13" lengthAdjust="spacingAndGlyphs" textLength="47" x="561" y="560.5684">firstCar</text><text fill="#000000" font-family="sans-serif" font-size="13" lengthAdjust="spacingAndGlyphs" textLength="44" x="562.5" y="575.8789">lastCar</text><!--link at.fhv.itm3.s2.roundabout.api.entity.ICar to at.fhv.itm3.s2.roundabout.api.entity.Street--><path d="M426.4556,182.181 C409.4023,201.9692 397,225.3498 397,251.5 C397,251.5 397,251.5 397,503.5 C397,600.8397 346.8621,631.2237 382,722 C401.5504,772.5071 437.1891,818.9252 474.1177,857.2293 " fill="none" id="at.fhv.itm3.s2.roundabout.api.entity.ICar-at.fhv.itm3.s2.roundabout.api.entity.Street" style="stroke: #A80036; stroke-width: 1.0;"/><polygon fill="#A80036" points="477.695,860.9107,474.2917,851.6685,474.2105,857.3248,468.5543,857.2437,477.695,860.9107" style="stroke: #A80036; stroke-width: 1.0;"/><text fill="#000000" font-family="sans-serif" font-size="13" lengthAdjust="spacingAndGlyphs" textLength="91" x="397" y="553.0684">currentSection</text><text fill="#000000" font-family="sans-serif" font-size="13" lengthAdjust="spacingAndGlyphs" textLength="74" x="405.5" y="568.3789">nextSection</text><text fill="#000000" font-family="sans-serif" font-size="13" lengthAdjust="spacingAndGlyphs" textLength="71" x="407" y="583.6895">destination</text><!--link at.fhv.itm3.s2.roundabout.api.entity.IRoute to at.fhv.itm3.s2.roundabout.api.entity.Street--><path d="M833.9089,460.1514 C803.1432,545.8505 743.9291,702.9734 680,831 C675.884,839.2428 671.4378,847.6592 666.8259,856.0516 " fill="none" id="at.fhv.itm3.s2.roundabout.api.entity.IRoute-at.fhv.itm3.s2.roundabout.api.entity.Street" style="stroke: #A80036; stroke-width: 1.0;"/><polygon fill="#A80036" points="664.2477,860.7104,672.1055,854.7728,666.6688,856.3357,665.106,850.899,664.2477,860.7104" style="stroke: #A80036; stroke-width: 1.0;"/><text fill="#000000" font-family="sans-serif" font-size="13" lengthAdjust="spacingAndGlyphs" textLength="33" x="762" y="690.0684">route</text><text fill="#000000" font-family="sans-serif" font-size="13" lengthAdjust="spacingAndGlyphs" textLength="6" x="662.6721" y="850.2473">*</text><!--link at.fhv.itm3.s2.roundabout.api.entity.IRoute to at.fhv.itm3.s2.roundabout.api.entity.Street--><path d="M850.9737,460.0172 C848.9122,491.0135 847,528.9431 847,563 C847,563 847,563 847,791.5 C847,856.006 789.266,898.1444 729.7363,924.4482 " fill="none" id="at.fhv.itm3.s2.roundabout.api.entity.IRoute-at.fhv.itm3.s2.roundabout.api.entity.Street" style="stroke: #A80036; stroke-width: 1.0;"/><polygon fill="#A80036" points="725.081,926.4718,734.9295,926.5521,729.6665,924.4784,731.7401,919.2153,725.081,926.4718" style="stroke: #A80036; stroke-width: 1.0;"/><text fill="#000000" font-family="sans-serif" font-size="13" lengthAdjust="spacingAndGlyphs" textLength="75" x="869" y="675.0684">startSection</text><text fill="#000000" font-family="sans-serif" font-size="13" lengthAdjust="spacingAndGlyphs" textLength="117" x="848" y="690.3789">destinationSection</text><text fill="#000000" font-family="sans-serif" font-size="13" lengthAdjust="spacingAndGlyphs" textLength="27" x="893" y="705.6895">sink</text><!--link at.fhv.itm3.s2.roundabout.api.entity.IRoute to at.fhv.itm3.s2.roundabout.api.entity.AbstractSource--><path d="M770.778,460.0718 C749.3118,476.5725 726.5402,494.6181 706,512 C664.7122,546.9393 656.8807,558.4629 617,595 C599.2277,611.2823 579.5341,629.0622 562.3562,644.4864 " fill="none" id="at.fhv.itm3.s2.roundabout.api.entity.IRoute-at.fhv.itm3.s2.roundabout.api.entity.AbstractSource" style="stroke: #A80036; stroke-width: 1.0;"/><polygon fill="#A80036" points="558.5038,647.9439,567.8735,644.9094,562.2249,644.6042,562.53,638.9556,558.5038,647.9439" style="stroke: #A80036; stroke-width: 1.0;"/><text fill="#000000" font-family="sans-serif" font-size="13" lengthAdjust="spacingAndGlyphs" textLength="42" x="707" y="568.0684">source</text><!--link at.fhv.itm3.s2.roundabout.api.entity.ICar to at.fhv.itm3.s2.roundabout.api.entity.IDriverBehaviour--><path d="M542.1024,182.0965 C552.6291,222.5675 565.9455,273.7634 576.9402,316.0334 " fill="none" id="at.fhv.itm3.s2.roundabout.api.entity.ICar-at.fhv.itm3.s2.roundabout.api.entity.IDriverBehaviour" style="stroke: #A80036; stroke-width: 1.0;"/><polygon fill="#A80036" points="578.2007,320.8797,579.8062,311.1626,576.942,316.0407,572.0638,313.1765,578.2007,320.8797" style="stroke: #A80036; stroke-width: 1.0;"/><text fill="#000000" font-family="sans-serif" font-size="13" lengthAdjust="spacingAndGlyphs" textLength="97" x="563" y="256.5684">driverBehaviour</text><!--link at.fhv.itm3.s2.roundabout.api.entity.ICar to at.fhv.itm3.s2.roundabout.api.entity.IRoute--><path d="M605.2163,182.0965 C657.9771,227.3087 726.3577,285.9059 778.3858,330.4902 " fill="none" id="at.fhv.itm3.s2.roundabout.api.entity.ICar-at.fhv.itm3.s2.roundabout.api.entity.IRoute" style="stroke: #A80036; stroke-width: 1.0;"/><polygon fill="#A80036" points="782.4182,333.9457,778.187,325.052,778.6215,330.6922,772.9814,331.1267,782.4182,333.9457" style="stroke: #A80036; stroke-width: 1.0;"/><text fill="#000000" font-family="sans-serif" font-size="13" lengthAdjust="spacingAndGlyphs" textLength="33" x="696" y="256.5684">route</text><!--
@startuml

    namespace at.fhv.itm3.s2.roundabout.api.entity {

        interface IDriverBehaviour [[../../../../../at/fhv/itm3/s2/roundabout/api/entity/IDriverBehaviour.html]] {
            {abstract} +getSpeed(): double
            {abstract} +setSpeed(double): void
            {abstract} +getMinDistanceToNextCar(): double
            {abstract} +setMinDistanceToNextCar(double): void
            {abstract} +getMaxDistanceToNextCar(): double
            {abstract} +setMaxDistanceToNextCar(double): void
            {abstract} +getMergeFactor(): double
            {abstract} +setMergeFactor(double): void
        }

        interface IStreetConnector [[../../../../../at/fhv/itm3/s2/roundabout/api/entity/IStreetConnector.html]] {
        }

        abstract class AbstractSource [[../../../../../at/fhv/itm3/s2/roundabout/api/entity/AbstractSource.html]] {
            +AbstractSource(Model, String, boolean)
            {abstract} +startGeneratingCars(): void
        }

        abstract class Street [[../../../../../at/fhv/itm3/s2/roundabout/api/entity/Street.html]] {
            +Street(Model, String, boolean)
            {abstract} +getLength(): double
            {abstract} +addCar(ICar): void
            {abstract} +removeFirstCar(): ICar
            {abstract} +isEmpty(): boolean
            {abstract} +getCarPositions(): Map<ICar, Double>
            {abstract} +updateAllCarsPositions(): void
            {abstract} +isFirstCarOnExitPoint(): boolean
            {abstract} +firstCarCouldEnterNextSection(): boolean
            {abstract} +isEnoughSpace(double): boolean
            {abstract} +moveFirstCarToNextSection(): void
            {abstract} +getNrOfEnteredCars(): int
        }

        interface IRoute [[../../../../../at/fhv/itm3/s2/roundabout/api/entity/IRoute.html]] {
            {abstract} +getSectionAt(int): Street
            {abstract} +getNumberOfSections(): int
            {abstract} +addSection(Street): void
            {abstract} +isEmpty(): boolean
            {abstract} +getIndexOfSection(Street): int
            {abstract} +addSource(AbstractSource): void
        }

        interface ICar [[../../../../../at/fhv/itm3/s2/roundabout/api/entity/ICar.html]] {
            {abstract} +getLastUpdateTime(): double
            {abstract} +setLastUpdateTime(double): void
            {abstract} +getTimeToTraverseCurrentSection(): double
            {abstract} +getTimeToTraverseSection(Street): double
            {abstract} +getTransitionTime(): double
            {abstract} +getLength(): double
            {abstract} +traverseToNextSection(): void
        }

        abstract class at.fhv.itm14.trafsim.model.entities.AbstractProducer
        at.fhv.itm14.trafsim.model.entities.AbstractProducer <|- - AbstractSource

        abstract class at.fhv.itm14.trafsim.model.entities.AbstractConsumer
        at.fhv.itm14.trafsim.model.entities.AbstractConsumer <|- - Street

        IStreetConnector - -> "*" Street: nextSections\npreviousSections

        AbstractSource - -> Street: connectedStreet

        Street - -> ICar: firstCar\nlastCar

        Street - -> IStreetConnector: nextStreetConnector\npreviousStreetConnector

        IRoute - -> "*" Street: route

        IRoute - -> Street: startSection\ndestinationSection\nsink

        IRoute - -> AbstractSource: source

        ICar - -> IDriverBehaviour: driverBehaviour

        ICar - -> IRoute: route

        ICar - -> Street: currentSection\nnextSection\ndestination

    }

@enduml

PlantUML version 1.2017.19(Sun Nov 12 12:46:22 CET 2017)
(APACHE source distribution)
Java Runtime: Java(TM) SE Runtime Environment
JVM: Java HotSpot(TM) 64-Bit Server VM
Java Version: 1.8.0_77-b03
Operating System: Mac OS X
OS Version: 10.13.1
Default Encoding: UTF-8
Language: de
Country: AT
--></g></svg>