<?xml version="1.0" encoding="UTF-8" standalone="no"?><svg xmlns="http://www.w3.org/2000/svg" xmlns:xlink="http://www.w3.org/1999/xlink" contentScriptType="application/ecmascript" contentStyleType="text/css" height="746px" preserveAspectRatio="none" style="width:1088px;height:746px;" version="1.1" viewBox="0 0 1088 746" width="1088px" zoomAndPan="magnify"><defs><filter height="300%" id="fitr4kqj0ec2s" width="300%" x="-1" y="-1"><feGaussianBlur result="blurOut" stdDeviation="2.0"/><feColorMatrix in="blurOut" result="blurOut2" type="matrix" values="0 0 0 0 0 0 0 0 0 0 0 0 0 0 0 0 0 0 .4 0"/><feOffset dx="4.0" dy="4.0" in="blurOut2" result="blurOut3"/><feBlend in="SourceGraphic" in2="blurOut3" mode="normal"/></filter></defs><g><!--cluster at.fhv.itm3.s2.roundabout--><polygon fill="#FFFFFF" filter="url(#fitr4kqj0ec2s)" points="14,366,203,366,210,388.4883,1066,388.4883,1066,734,14,734,14,366" style="stroke: #000000; stroke-width: 2.0;"/><line style="stroke: #000000; stroke-width: 2.0;" x1="14" x2="210" y1="388.4883" y2="388.4883"/><text fill="#000000" font-family="sans-serif" font-size="14" font-weight="bold" lengthAdjust="spacingAndGlyphs" textLength="183" x="18" y="381.5352">at.fhv.itm3.s2.roundabout</text><!--cluster desmoj.core.simulator--><polygon fill="#FFFFFF" filter="url(#fitr4kqj0ec2s)" points="792,106.5,957,106.5,964,128.9883,968,128.9883,968,228.5,792,228.5,792,106.5" style="stroke: #000000; stroke-width: 2.0;"/><line style="stroke: #000000; stroke-width: 2.0;" x1="792" x2="964" y1="128.9883" y2="128.9883"/><text fill="#000000" font-family="sans-serif" font-size="14" font-weight="bold" lengthAdjust="spacingAndGlyphs" textLength="159" x="796" y="122.0352">desmoj.core.simulator</text><!--cluster at.fhv.itm3.s2.roundabout.api.entity--><polygon fill="#FFFFFF" filter="url(#fitr4kqj0ec2s)" points="78,16,337,16,344,38.4883,611,38.4883,611,319,78,319,78,16" style="stroke: #000000; stroke-width: 2.0;"/><line style="stroke: #000000; stroke-width: 2.0;" x1="78" x2="344" y1="38.4883" y2="38.4883"/><text fill="#000000" font-family="sans-serif" font-size="14" font-weight="bold" lengthAdjust="spacingAndGlyphs" textLength="253" x="82" y="31.5352">at.fhv.itm3.s2.roundabout.api.entity</text><!--class at.fhv.itm3.s2.roundabout.RoundaboutSimulationModel--><a target="_top" xlink:actuate="onRequest" xlink:href="../../../../../at/fhv/itm3/s2/roundabout/RoundaboutSimulationModel.html" xlink:show="new" xlink:title="../../../../../at/fhv/itm3/s2/roundabout/RoundaboutSimulationModel.html" xlink:type="simple"><rect fill="#FEFECE" filter="url(#fitr4kqj0ec2s)" height="216.416" id="at.fhv.itm3.s2.roundabout.RoundaboutSimulationModel" style="stroke: #A80036; stroke-width: 1.5;" width="356" x="702" y="451.5"/><ellipse cx="794.25" cy="467.5" fill="#ADD1B2" rx="11" ry="11" style="stroke: #A80036; stroke-width: 1.0;"/><path d="M797.2231,473.1431 Q796.6421,473.4419 796.0029,473.5913 Q795.3638,473.7407 794.6582,473.7407 Q792.1514,473.7407 790.8315,472.0889 Q789.5117,470.437 789.5117,467.3159 Q789.5117,464.1865 790.8315,462.5347 Q792.1514,460.8828 794.6582,460.8828 Q795.3638,460.8828 796.0112,461.0322 Q796.6587,461.1816 797.2231,461.4805 L797.2231,464.2031 Q796.5923,463.6221 795.9988,463.3523 Q795.4053,463.0825 794.7744,463.0825 Q793.4297,463.0825 792.7449,464.1492 Q792.0601,465.2158 792.0601,467.3159 Q792.0601,469.4077 792.7449,470.4744 Q793.4297,471.541 794.7744,471.541 Q795.4053,471.541 795.9988,471.2712 Q796.5923,471.0015 797.2231,470.4204 Z "/><text fill="#000000" font-family="sans-serif" font-size="12" lengthAdjust="spacingAndGlyphs" textLength="163" x="814.75" y="472.0352">RoundaboutSimulationModel</text><line style="stroke: #A80036; stroke-width: 1.5;" x1="703" x2="1057" y1="483.5" y2="483.5"/><ellipse cx="713" cy="495.4775" fill="none" rx="3" ry="3" style="stroke: #038048; stroke-width: 1.0;"/><text fill="#000000" font-family="sans-serif" font-size="11" lengthAdjust="spacingAndGlyphs" text-decoration="underline" textLength="263" x="722" y="498.1348">MIN_DISTANCE_FACTOR_BETWEEN_CARS: double</text><line style="stroke: #000000; stroke-width: 1.0;" x1="722" x2="985" y1="500.1348" y2="500.1348"/><ellipse cx="713" cy="508.4326" fill="none" rx="3" ry="3" style="stroke: #038048; stroke-width: 1.0;"/><text fill="#000000" font-family="sans-serif" font-size="11" lengthAdjust="spacingAndGlyphs" text-decoration="underline" textLength="267" x="722" y="511.0898">MAX_DISTANCE_FACTOR_BETWEEN_CARS: double</text><line style="stroke: #000000; stroke-width: 1.0;" x1="722" x2="989" y1="513.0898" y2="513.0898"/><ellipse cx="713" cy="521.3877" fill="none" rx="3" ry="3" style="stroke: #038048; stroke-width: 1.0;"/><text fill="#000000" font-family="sans-serif" font-size="11" lengthAdjust="spacingAndGlyphs" text-decoration="underline" textLength="235" x="722" y="524.0449">MIN_TIME_BETWEEN_CAR_ARRIVALS: double</text><line style="stroke: #000000; stroke-width: 1.0;" x1="722" x2="957" y1="526.0449" y2="526.0449"/><ellipse cx="713" cy="534.3428" fill="none" rx="3" ry="3" style="stroke: #038048; stroke-width: 1.0;"/><text fill="#000000" font-family="sans-serif" font-size="11" lengthAdjust="spacingAndGlyphs" text-decoration="underline" textLength="239" x="722" y="537">MAX_TIME_BETWEEN_CAR_ARRIVALS: double</text><line style="stroke: #000000; stroke-width: 1.0;" x1="722" x2="961" y1="539" y2="539"/><line style="stroke: #A80036; stroke-width: 1.5;" x1="703" x2="1057" y1="543.3203" y2="543.3203"/><ellipse cx="713" cy="555.2979" fill="#84BE84" rx="3" ry="3" style="stroke: #038048; stroke-width: 1.0;"/><text fill="#000000" font-family="sans-serif" font-size="11" lengthAdjust="spacingAndGlyphs" textLength="330" x="722" y="557.9551">RoundaboutSimulationModel(Model, String, boolean, boolean)</text><ellipse cx="713" cy="568.2529" fill="#84BE84" rx="3" ry="3" style="stroke: #038048; stroke-width: 1.0;"/><text fill="#000000" font-family="sans-serif" font-size="11" lengthAdjust="spacingAndGlyphs" textLength="107" x="722" y="570.9102">description(): String</text><ellipse cx="713" cy="581.208" fill="#84BE84" rx="3" ry="3" style="stroke: #038048; stroke-width: 1.0;"/><text fill="#000000" font-family="sans-serif" font-size="11" lengthAdjust="spacingAndGlyphs" textLength="134" x="722" y="583.8652">doInitialSchedules(): void</text><ellipse cx="713" cy="594.1631" fill="#84BE84" rx="3" ry="3" style="stroke: #038048; stroke-width: 1.0;"/><text fill="#000000" font-family="sans-serif" font-size="11" lengthAdjust="spacingAndGlyphs" textLength="54" x="722" y="596.8203">init(): void</text><ellipse cx="713" cy="607.1182" fill="#84BE84" rx="3" ry="3" style="stroke: #038048; stroke-width: 1.0;"/><text fill="#000000" font-family="sans-serif" font-size="11" lengthAdjust="spacingAndGlyphs" textLength="260" x="722" y="609.7754">getRandomDistanceFactorBetweenCars(): double</text><ellipse cx="713" cy="620.0732" fill="#84BE84" rx="3" ry="3" style="stroke: #038048; stroke-width: 1.0;"/><text fill="#000000" font-family="sans-serif" font-size="11" lengthAdjust="spacingAndGlyphs" textLength="242" x="722" y="622.7305">getRandomTimeBetweenCarArrivals(): double</text><ellipse cx="713" cy="633.0283" fill="#84BE84" rx="3" ry="3" style="stroke: #038048; stroke-width: 1.0;"/><text fill="#000000" font-family="sans-serif" font-size="11" lengthAdjust="spacingAndGlyphs" textLength="159" x="722" y="635.6855">getModelTimeUnit(): TimeUnit</text><ellipse cx="713" cy="645.9834" fill="#84BE84" rx="3" ry="3" style="stroke: #038048; stroke-width: 1.0;"/><text fill="#000000" font-family="sans-serif" font-size="11" lengthAdjust="spacingAndGlyphs" textLength="136" x="722" y="648.6406">getCurrentTime(): double</text><ellipse cx="713" cy="658.9385" fill="#84BE84" rx="3" ry="3" style="stroke: #038048; stroke-width: 1.0;"/><text fill="#000000" font-family="sans-serif" font-size="11" lengthAdjust="spacingAndGlyphs" textLength="304" x="722" y="661.5957">getTimeBetweenCarArrivalsOnOneWayStreets(): ContDist</text></a><!--class at.fhv.itm3.s2.roundabout.Sink--><a target="_top" xlink:actuate="onRequest" xlink:href="../../../../../at/fhv/itm3/s2/roundabout/Sink.html" xlink:show="new" xlink:title="../../../../../at/fhv/itm3/s2/roundabout/Sink.html" xlink:type="simple"><rect fill="#FEFECE" filter="url(#fitr4kqj0ec2s)" height="333.0117" id="at.fhv.itm3.s2.roundabout.Sink" style="stroke: #A80036; stroke-width: 1.5;" width="304" x="22" y="393"/><ellipse cx="158.25" cy="409" fill="#ADD1B2" rx="11" ry="11" style="stroke: #A80036; stroke-width: 1.0;"/><path d="M161.2231,414.6431 Q160.6421,414.9419 160.0029,415.0913 Q159.3638,415.2407 158.6582,415.2407 Q156.1514,415.2407 154.8315,413.5889 Q153.5117,411.937 153.5117,408.8159 Q153.5117,405.6865 154.8315,404.0347 Q156.1514,402.3828 158.6582,402.3828 Q159.3638,402.3828 160.0112,402.5322 Q160.6587,402.6816 161.2231,402.9805 L161.2231,405.7031 Q160.5923,405.1221 159.9988,404.8523 Q159.4053,404.5825 158.7744,404.5825 Q157.4297,404.5825 156.7449,405.6492 Q156.0601,406.7158 156.0601,408.8159 Q156.0601,410.9077 156.7449,411.9744 Q157.4297,413.041 158.7744,413.041 Q159.4053,413.041 159.9988,412.7712 Q160.5923,412.5015 161.2231,411.9204 Z "/><text fill="#000000" font-family="sans-serif" font-size="12" lengthAdjust="spacingAndGlyphs" textLength="23" x="178.75" y="413.5352">Sink</text><line style="stroke: #A80036; stroke-width: 1.5;" x1="23" x2="325" y1="425" y2="425"/><line style="stroke: #A80036; stroke-width: 1.5;" x1="23" x2="325" y1="433" y2="433"/><ellipse cx="33" cy="444.9775" fill="#84BE84" rx="3" ry="3" style="stroke: #038048; stroke-width: 1.0;"/><text fill="#000000" font-family="sans-serif" font-size="11" lengthAdjust="spacingAndGlyphs" textLength="149" x="42" y="447.6348">Sink(Model, String, boolean)</text><ellipse cx="33" cy="457.9326" fill="#84BE84" rx="3" ry="3" style="stroke: #038048; stroke-width: 1.0;"/><text fill="#000000" font-family="sans-serif" font-size="11" lengthAdjust="spacingAndGlyphs" textLength="105" x="42" y="460.5898">getLength(): double</text><ellipse cx="33" cy="470.8877" fill="#84BE84" rx="3" ry="3" style="stroke: #038048; stroke-width: 1.0;"/><text fill="#000000" font-family="sans-serif" font-size="11" lengthAdjust="spacingAndGlyphs" textLength="98" x="42" y="473.5449">addCar(ICar): void</text><ellipse cx="33" cy="483.8428" fill="#84BE84" rx="3" ry="3" style="stroke: #038048; stroke-width: 1.0;"/><text fill="#000000" font-family="sans-serif" font-size="11" lengthAdjust="spacingAndGlyphs" textLength="96" x="42" y="486.5">getFirstCar(): ICar</text><ellipse cx="33" cy="496.7979" fill="#84BE84" rx="3" ry="3" style="stroke: #038048; stroke-width: 1.0;"/><text fill="#000000" font-family="sans-serif" font-size="11" lengthAdjust="spacingAndGlyphs" textLength="94" x="42" y="499.4551">getLastCar(): ICar</text><ellipse cx="33" cy="509.7529" fill="#84BE84" rx="3" ry="3" style="stroke: #038048; stroke-width: 1.0;"/><text fill="#000000" font-family="sans-serif" font-size="11" lengthAdjust="spacingAndGlyphs" textLength="119" x="42" y="512.4102">removeFirstCar(): ICar</text><ellipse cx="33" cy="522.708" fill="#84BE84" rx="3" ry="3" style="stroke: #038048; stroke-width: 1.0;"/><text fill="#000000" font-family="sans-serif" font-size="11" lengthAdjust="spacingAndGlyphs" textLength="99" x="42" y="525.3652">isEmpty(): boolean</text><ellipse cx="33" cy="535.6631" fill="#84BE84" rx="3" ry="3" style="stroke: #038048; stroke-width: 1.0;"/><text fill="#000000" font-family="sans-serif" font-size="11" lengthAdjust="spacingAndGlyphs" textLength="235" x="42" y="538.3203">getNextStreetConnector(): IStreetConnector</text><ellipse cx="33" cy="548.6182" fill="#84BE84" rx="3" ry="3" style="stroke: #038048; stroke-width: 1.0;"/><text fill="#000000" font-family="sans-serif" font-size="11" lengthAdjust="spacingAndGlyphs" textLength="256" x="42" y="551.2754">getPreviousStreetConnector(): IStreetConnector</text><ellipse cx="33" cy="561.5732" fill="#84BE84" rx="3" ry="3" style="stroke: #038048; stroke-width: 1.0;"/><text fill="#000000" font-family="sans-serif" font-size="11" lengthAdjust="spacingAndGlyphs" textLength="278" x="42" y="564.2305">setPreviousStreetConnector(IStreetConnector): void</text><ellipse cx="33" cy="574.5283" fill="#84BE84" rx="3" ry="3" style="stroke: #038048; stroke-width: 1.0;"/><text fill="#000000" font-family="sans-serif" font-size="11" lengthAdjust="spacingAndGlyphs" textLength="257" x="42" y="577.1855">setNextStreetConnector(IStreetConnector): void</text><ellipse cx="33" cy="587.4834" fill="#84BE84" rx="3" ry="3" style="stroke: #038048; stroke-width: 1.0;"/><text fill="#000000" font-family="sans-serif" font-size="11" lengthAdjust="spacingAndGlyphs" textLength="205" x="42" y="590.1406">getCarPositions(): Map&lt;ICar, Double&gt;</text><ellipse cx="33" cy="600.4385" fill="#84BE84" rx="3" ry="3" style="stroke: #038048; stroke-width: 1.0;"/><text fill="#000000" font-family="sans-serif" font-size="11" lengthAdjust="spacingAndGlyphs" textLength="162" x="42" y="603.0957">updateAllCarsPositions(): void</text><ellipse cx="33" cy="613.3936" fill="#84BE84" rx="3" ry="3" style="stroke: #038048; stroke-width: 1.0;"/><text fill="#000000" font-family="sans-serif" font-size="11" lengthAdjust="spacingAndGlyphs" textLength="172" x="42" y="616.0508">isFirstCarOnExitPoint(): boolean</text><ellipse cx="33" cy="626.3486" fill="#84BE84" rx="3" ry="3" style="stroke: #038048; stroke-width: 1.0;"/><text fill="#000000" font-family="sans-serif" font-size="11" lengthAdjust="spacingAndGlyphs" textLength="222" x="42" y="629.0059">firstCarCouldEnterNextSection(): boolean</text><ellipse cx="33" cy="639.3037" fill="#84BE84" rx="3" ry="3" style="stroke: #038048; stroke-width: 1.0;"/><text fill="#000000" font-family="sans-serif" font-size="11" lengthAdjust="spacingAndGlyphs" textLength="175" x="42" y="641.9609">isEnoughSpace(double): boolean</text><ellipse cx="33" cy="652.2588" fill="#84BE84" rx="3" ry="3" style="stroke: #038048; stroke-width: 1.0;"/><text fill="#000000" font-family="sans-serif" font-size="11" lengthAdjust="spacingAndGlyphs" textLength="187" x="42" y="654.916">moveFirstCarToNextSection(): void</text><ellipse cx="33" cy="665.2139" fill="#84BE84" rx="3" ry="3" style="stroke: #038048; stroke-width: 1.0;"/><text fill="#000000" font-family="sans-serif" font-size="11" lengthAdjust="spacingAndGlyphs" textLength="198" x="42" y="667.8711">carCouldEnterNextSection(): boolean</text><ellipse cx="33" cy="678.1689" fill="#84BE84" rx="3" ry="3" style="stroke: #038048; stroke-width: 1.0;"/><text fill="#000000" font-family="sans-serif" font-size="11" lengthAdjust="spacingAndGlyphs" textLength="137" x="42" y="680.8262">getNrOfEnteredCars(): int</text><ellipse cx="33" cy="691.124" fill="#84BE84" rx="3" ry="3" style="stroke: #038048; stroke-width: 1.0;"/><text fill="#000000" font-family="sans-serif" font-size="11" lengthAdjust="spacingAndGlyphs" textLength="101" x="42" y="693.7813">carEnter(Car): void</text><ellipse cx="33" cy="704.0791" fill="#84BE84" rx="3" ry="3" style="stroke: #038048; stroke-width: 1.0;"/><text fill="#000000" font-family="sans-serif" font-size="11" lengthAdjust="spacingAndGlyphs" textLength="85" x="42" y="706.7363">isFull(): boolean</text><ellipse cx="33" cy="717.0342" fill="#84BE84" rx="3" ry="3" style="stroke: #038048; stroke-width: 1.0;"/><text fill="#000000" font-family="sans-serif" font-size="11" lengthAdjust="spacingAndGlyphs" textLength="73" x="42" y="719.6914">toDTO(): DTO</text></a><!--class at.fhv.itm3.s2.roundabout.RoundaboutSource--><a target="_top" xlink:actuate="onRequest" xlink:href="../../../../../at/fhv/itm3/s2/roundabout/RoundaboutSource.html" xlink:show="new" xlink:title="../../../../../at/fhv/itm3/s2/roundabout/RoundaboutSource.html" xlink:type="simple"><rect fill="#FEFECE" filter="url(#fitr4kqj0ec2s)" height="99.8203" id="at.fhv.itm3.s2.roundabout.RoundaboutSource" style="stroke: #A80036; stroke-width: 1.5;" width="306" x="361" y="509.5"/><ellipse cx="455.75" cy="525.5" fill="#ADD1B2" rx="11" ry="11" style="stroke: #A80036; stroke-width: 1.0;"/><path d="M458.7231,531.1431 Q458.1421,531.4419 457.5029,531.5913 Q456.8638,531.7407 456.1582,531.7407 Q453.6514,531.7407 452.3315,530.0889 Q451.0117,528.437 451.0117,525.3159 Q451.0117,522.1865 452.3315,520.5347 Q453.6514,518.8828 456.1582,518.8828 Q456.8638,518.8828 457.5112,519.0322 Q458.1587,519.1816 458.7231,519.4805 L458.7231,522.2031 Q458.0923,521.6221 457.4988,521.3523 Q456.9053,521.0825 456.2744,521.0825 Q454.9297,521.0825 454.2449,522.1492 Q453.5601,523.2158 453.5601,525.3159 Q453.5601,527.4077 454.2449,528.4744 Q454.9297,529.541 456.2744,529.541 Q456.9053,529.541 457.4988,529.2712 Q458.0923,529.0015 458.7231,528.4204 Z "/><text fill="#000000" font-family="sans-serif" font-size="12" lengthAdjust="spacingAndGlyphs" textLength="108" x="476.25" y="530.0352">RoundaboutSource</text><line style="stroke: #A80036; stroke-width: 1.5;" x1="362" x2="666" y1="541.5" y2="541.5"/><line style="stroke: #A80036; stroke-width: 1.5;" x1="362" x2="666" y1="549.5" y2="549.5"/><ellipse cx="372" cy="561.4775" fill="#84BE84" rx="3" ry="3" style="stroke: #038048; stroke-width: 1.0;"/><text fill="#000000" font-family="sans-serif" font-size="11" lengthAdjust="spacingAndGlyphs" textLength="267" x="381" y="564.1348">RoundaboutSource(Model, String, boolean, Street)</text><ellipse cx="372" cy="574.4326" fill="#84BE84" rx="3" ry="3" style="stroke: #038048; stroke-width: 1.0;"/><text fill="#000000" font-family="sans-serif" font-size="11" lengthAdjust="spacingAndGlyphs" textLength="146" x="381" y="577.0898">startGeneratingCars(): void</text><ellipse cx="372" cy="587.3877" fill="#84BE84" rx="3" ry="3" style="stroke: #038048; stroke-width: 1.0;"/><text fill="#000000" font-family="sans-serif" font-size="11" lengthAdjust="spacingAndGlyphs" textLength="280" x="381" y="590.0449">carDelivered(CarDepartureEvent, Car, boolean): void</text><ellipse cx="372" cy="600.3428" fill="#84BE84" rx="3" ry="3" style="stroke: #038048; stroke-width: 1.0;"/><text fill="#000000" font-family="sans-serif" font-size="11" lengthAdjust="spacingAndGlyphs" textLength="73" x="381" y="603">toDTO(): DTO</text></a><!--class desmoj.core.simulator.Model--><rect fill="#FEFECE" filter="url(#fitr4kqj0ec2s)" height="86.8652" id="desmoj.core.simulator.Model" style="stroke: #A80036; stroke-width: 1.5;" width="160" x="800" y="133.5"/><ellipse cx="858.25" cy="149.5" fill="#A9DCDF" rx="11" ry="11" style="stroke: #A80036; stroke-width: 1.0;"/><path d="M858.3633,144.8481 L857.2095,149.9199 L859.5254,149.9199 Z M856.8691,142.6069 L859.8657,142.6069 L863.2109,155 L860.7622,155 L859.9985,151.937 L856.7197,151.937 L855.9727,155 L853.5239,155 Z "/><text fill="#000000" font-family="sans-serif" font-size="12" font-style="italic" lengthAdjust="spacingAndGlyphs" textLength="35" x="878.75" y="154.0352">Model</text><line style="stroke: #A80036; stroke-width: 1.5;" x1="801" x2="959" y1="165.5" y2="165.5"/><line style="stroke: #A80036; stroke-width: 1.5;" x1="801" x2="959" y1="173.5" y2="173.5"/><ellipse cx="811" cy="185.4775" fill="#84BE84" rx="3" ry="3" style="stroke: #038048; stroke-width: 1.0;"/><text fill="#000000" font-family="sans-serif" font-size="11" font-style="italic" lengthAdjust="spacingAndGlyphs" textLength="107" x="820" y="188.1348">description(): String</text><ellipse cx="811" cy="198.4326" fill="#84BE84" rx="3" ry="3" style="stroke: #038048; stroke-width: 1.0;"/><text fill="#000000" font-family="sans-serif" font-size="11" font-style="italic" lengthAdjust="spacingAndGlyphs" textLength="134" x="820" y="201.0898">doInitialSchedules(): void</text><ellipse cx="811" cy="211.3877" fill="#84BE84" rx="3" ry="3" style="stroke: #038048; stroke-width: 1.0;"/><text fill="#000000" font-family="sans-serif" font-size="11" font-style="italic" lengthAdjust="spacingAndGlyphs" textLength="54" x="820" y="214.0449">init(): void</text><!--class at.fhv.itm3.s2.roundabout.api.entity.Street--><rect fill="#FEFECE" filter="url(#fitr4kqj0ec2s)" height="268.2363" id="at.fhv.itm3.s2.roundabout.api.entity.Street" style="stroke: #A80036; stroke-width: 1.5;" width="304" x="86" y="43"/><ellipse cx="217.25" cy="59" fill="#A9DCDF" rx="11" ry="11" style="stroke: #A80036; stroke-width: 1.0;"/><path d="M217.3633,54.3481 L216.2095,59.4199 L218.5254,59.4199 Z M215.8691,52.1069 L218.8657,52.1069 L222.2109,64.5 L219.7622,64.5 L218.9985,61.437 L215.7197,61.437 L214.9727,64.5 L212.5239,64.5 Z "/><text fill="#000000" font-family="sans-serif" font-size="12" font-style="italic" lengthAdjust="spacingAndGlyphs" textLength="33" x="237.75" y="63.5352">Street</text><line style="stroke: #A80036; stroke-width: 1.5;" x1="87" x2="389" y1="75" y2="75"/><line style="stroke: #A80036; stroke-width: 1.5;" x1="87" x2="389" y1="83" y2="83"/><ellipse cx="97" cy="94.9775" fill="#84BE84" rx="3" ry="3" style="stroke: #038048; stroke-width: 1.0;"/><text fill="#000000" font-family="sans-serif" font-size="11" font-style="italic" lengthAdjust="spacingAndGlyphs" textLength="105" x="106" y="97.6348">getLength(): double</text><ellipse cx="97" cy="107.9326" fill="#84BE84" rx="3" ry="3" style="stroke: #038048; stroke-width: 1.0;"/><text fill="#000000" font-family="sans-serif" font-size="11" font-style="italic" lengthAdjust="spacingAndGlyphs" textLength="98" x="106" y="110.5898">addCar(ICar): void</text><ellipse cx="97" cy="120.8877" fill="#84BE84" rx="3" ry="3" style="stroke: #038048; stroke-width: 1.0;"/><text fill="#000000" font-family="sans-serif" font-size="11" font-style="italic" lengthAdjust="spacingAndGlyphs" textLength="96" x="106" y="123.5449">getFirstCar(): ICar</text><ellipse cx="97" cy="133.8428" fill="#84BE84" rx="3" ry="3" style="stroke: #038048; stroke-width: 1.0;"/><text fill="#000000" font-family="sans-serif" font-size="11" font-style="italic" lengthAdjust="spacingAndGlyphs" textLength="94" x="106" y="136.5">getLastCar(): ICar</text><ellipse cx="97" cy="146.7979" fill="#84BE84" rx="3" ry="3" style="stroke: #038048; stroke-width: 1.0;"/><text fill="#000000" font-family="sans-serif" font-size="11" font-style="italic" lengthAdjust="spacingAndGlyphs" textLength="119" x="106" y="149.4551">removeFirstCar(): ICar</text><ellipse cx="97" cy="159.7529" fill="#84BE84" rx="3" ry="3" style="stroke: #038048; stroke-width: 1.0;"/><text fill="#000000" font-family="sans-serif" font-size="11" font-style="italic" lengthAdjust="spacingAndGlyphs" textLength="99" x="106" y="162.4102">isEmpty(): boolean</text><ellipse cx="97" cy="172.708" fill="#84BE84" rx="3" ry="3" style="stroke: #038048; stroke-width: 1.0;"/><text fill="#000000" font-family="sans-serif" font-size="11" font-style="italic" lengthAdjust="spacingAndGlyphs" textLength="235" x="106" y="175.3652">getNextStreetConnector(): IStreetConnector</text><ellipse cx="97" cy="185.6631" fill="#84BE84" rx="3" ry="3" style="stroke: #038048; stroke-width: 1.0;"/><text fill="#000000" font-family="sans-serif" font-size="11" font-style="italic" lengthAdjust="spacingAndGlyphs" textLength="256" x="106" y="188.3203">getPreviousStreetConnector(): IStreetConnector</text><ellipse cx="97" cy="198.6182" fill="#84BE84" rx="3" ry="3" style="stroke: #038048; stroke-width: 1.0;"/><text fill="#000000" font-family="sans-serif" font-size="11" font-style="italic" lengthAdjust="spacingAndGlyphs" textLength="278" x="106" y="201.2754">setPreviousStreetConnector(IStreetConnector): void</text><ellipse cx="97" cy="211.5732" fill="#84BE84" rx="3" ry="3" style="stroke: #038048; stroke-width: 1.0;"/><text fill="#000000" font-family="sans-serif" font-size="11" font-style="italic" lengthAdjust="spacingAndGlyphs" textLength="257" x="106" y="214.2305">setNextStreetConnector(IStreetConnector): void</text><ellipse cx="97" cy="224.5283" fill="#84BE84" rx="3" ry="3" style="stroke: #038048; stroke-width: 1.0;"/><text fill="#000000" font-family="sans-serif" font-size="11" font-style="italic" lengthAdjust="spacingAndGlyphs" textLength="205" x="106" y="227.1855">getCarPositions(): Map&lt;ICar, Double&gt;</text><ellipse cx="97" cy="237.4834" fill="#84BE84" rx="3" ry="3" style="stroke: #038048; stroke-width: 1.0;"/><text fill="#000000" font-family="sans-serif" font-size="11" font-style="italic" lengthAdjust="spacingAndGlyphs" textLength="162" x="106" y="240.1406">updateAllCarsPositions(): void</text><ellipse cx="97" cy="250.4385" fill="#84BE84" rx="3" ry="3" style="stroke: #038048; stroke-width: 1.0;"/><text fill="#000000" font-family="sans-serif" font-size="11" font-style="italic" lengthAdjust="spacingAndGlyphs" textLength="172" x="106" y="253.0957">isFirstCarOnExitPoint(): boolean</text><ellipse cx="97" cy="263.3936" fill="#84BE84" rx="3" ry="3" style="stroke: #038048; stroke-width: 1.0;"/><text fill="#000000" font-family="sans-serif" font-size="11" font-style="italic" lengthAdjust="spacingAndGlyphs" textLength="222" x="106" y="266.0508">firstCarCouldEnterNextSection(): boolean</text><ellipse cx="97" cy="276.3486" fill="#84BE84" rx="3" ry="3" style="stroke: #038048; stroke-width: 1.0;"/><text fill="#000000" font-family="sans-serif" font-size="11" font-style="italic" lengthAdjust="spacingAndGlyphs" textLength="175" x="106" y="279.0059">isEnoughSpace(double): boolean</text><ellipse cx="97" cy="289.3037" fill="#84BE84" rx="3" ry="3" style="stroke: #038048; stroke-width: 1.0;"/><text fill="#000000" font-family="sans-serif" font-size="11" font-style="italic" lengthAdjust="spacingAndGlyphs" textLength="187" x="106" y="291.9609">moveFirstCarToNextSection(): void</text><ellipse cx="97" cy="302.2588" fill="#84BE84" rx="3" ry="3" style="stroke: #038048; stroke-width: 1.0;"/><text fill="#000000" font-family="sans-serif" font-size="11" font-style="italic" lengthAdjust="spacingAndGlyphs" textLength="137" x="106" y="304.916">getNrOfEnteredCars(): int</text><!--class at.fhv.itm3.s2.roundabout.api.entity.AbstractSource--><rect fill="#FEFECE" filter="url(#fitr4kqj0ec2s)" height="73.9102" id="at.fhv.itm3.s2.roundabout.api.entity.AbstractSource" style="stroke: #A80036; stroke-width: 1.5;" width="177" x="425.5" y="140"/><ellipse cx="467.05" cy="156" fill="#A9DCDF" rx="11" ry="11" style="stroke: #A80036; stroke-width: 1.0;"/><path d="M467.1633,151.3481 L466.0095,156.4199 L468.3254,156.4199 Z M465.6691,149.1069 L468.6657,149.1069 L472.0109,161.5 L469.5622,161.5 L468.7985,158.437 L465.5197,158.437 L464.7727,161.5 L462.3239,161.5 Z "/><text fill="#000000" font-family="sans-serif" font-size="12" font-style="italic" lengthAdjust="spacingAndGlyphs" textLength="86" x="486.95" y="160.5352">AbstractSource</text><line style="stroke: #A80036; stroke-width: 1.5;" x1="426.5" x2="601.5" y1="172" y2="172"/><line style="stroke: #A80036; stroke-width: 1.5;" x1="426.5" x2="601.5" y1="180" y2="180"/><ellipse cx="436.5" cy="191.9775" fill="#84BE84" rx="3" ry="3" style="stroke: #038048; stroke-width: 1.0;"/><text fill="#000000" font-family="sans-serif" font-size="11" font-style="italic" lengthAdjust="spacingAndGlyphs" textLength="146" x="445.5" y="194.6348">startGeneratingCars(): void</text><ellipse cx="436.5" cy="204.9326" fill="#84BE84" rx="3" ry="3" style="stroke: #038048; stroke-width: 1.0;"/><text fill="#000000" font-family="sans-serif" font-size="11" font-style="italic" lengthAdjust="spacingAndGlyphs" textLength="151" x="445.5" y="207.5898">getConnectedStreet(): Street</text><!--link desmoj.core.simulator.Model to at.fhv.itm3.s2.roundabout.RoundaboutSimulationModel--><path d="M880,240.6111 C880,297.8643 880,383.1966 880,451.1858 " fill="none" id="desmoj.core.simulator.Model-at.fhv.itm3.s2.roundabout.RoundaboutSimulationModel" style="stroke: #A80036; stroke-width: 1.0;"/><polygon fill="none" points="873.0001,240.5052,880,220.5052,887.0001,240.5052,873.0001,240.5052" style="stroke: #A80036; stroke-width: 1.0;"/><!--link at.fhv.itm3.s2.roundabout.api.entity.Street to at.fhv.itm3.s2.roundabout.Sink--><path d="M212.2693,330.7811 C208.8597,351.1587 205.3513,372.127 201.9072,392.7109 " fill="none" id="at.fhv.itm3.s2.roundabout.api.entity.Street-at.fhv.itm3.s2.roundabout.Sink" style="stroke: #A80036; stroke-width: 1.0;"/><polygon fill="none" points="205.3663,329.6192,215.571,311.0486,219.1744,331.9296,205.3663,329.6192" style="stroke: #A80036; stroke-width: 1.0;"/><!--link at.fhv.itm3.s2.roundabout.api.entity.AbstractSource to at.fhv.itm3.s2.roundabout.RoundaboutSource--><path d="M514,234.4312 C514,309.096 514,438.3104 514,509.2614 " fill="none" id="at.fhv.itm3.s2.roundabout.api.entity.AbstractSource-at.fhv.itm3.s2.roundabout.RoundaboutSource" style="stroke: #A80036; stroke-width: 1.0;"/><polygon fill="none" points="507.0001,234.0233,514,214.0233,521.0001,234.0232,507.0001,234.0233" style="stroke: #A80036; stroke-width: 1.0;"/><!--link at.fhv.itm3.s2.roundabout.RoundaboutSource to at.fhv.itm3.s2.roundabout.api.entity.Street--><path d="M477.9137,509.4891 C442.4659,460.3631 386.7504,383.1486 337.9307,315.4909 " fill="none" id="at.fhv.itm3.s2.roundabout.RoundaboutSource-at.fhv.itm3.s2.roundabout.api.entity.Street" style="stroke: #A80036; stroke-width: 1.0;"/><polygon fill="#A80036" points="334.7253,311.0486,336.7482,320.6875,337.6511,315.1032,343.2355,316.0061,334.7253,311.0486" style="stroke: #A80036; stroke-width: 1.0;"/><text fill="#000000" font-family="sans-serif" font-size="13" lengthAdjust="spacingAndGlyphs" textLength="101" x="369" y="354.5684">connectedStreet</text><!--
@startuml

    namespace at.fhv.itm3.s2.roundabout {

        class RoundaboutSimulationModel [[../../../../../at/fhv/itm3/s2/roundabout/RoundaboutSimulationModel.html]] {
            {static} +MIN_DISTANCE_FACTOR_BETWEEN_CARS: double
            {static} +MAX_DISTANCE_FACTOR_BETWEEN_CARS: double
            {static} +MIN_TIME_BETWEEN_CAR_ARRIVALS: double
            {static} +MAX_TIME_BETWEEN_CAR_ARRIVALS: double
            +RoundaboutSimulationModel(Model, String, boolean, boolean)
            +description(): String
            +doInitialSchedules(): void
            +init(): void
            +getRandomDistanceFactorBetweenCars(): double
            +getRandomTimeBetweenCarArrivals(): double
            +getModelTimeUnit(): TimeUnit
            +getCurrentTime(): double
            +getTimeBetweenCarArrivalsOnOneWayStreets(): ContDist
        }

        class Sink [[../../../../../at/fhv/itm3/s2/roundabout/Sink.html]] {
            +Sink(Model, String, boolean)
            +getLength(): double
            +addCar(ICar): void
            +getFirstCar(): ICar
            +getLastCar(): ICar
            +removeFirstCar(): ICar
            +isEmpty(): boolean
            +getNextStreetConnector(): IStreetConnector
            +getPreviousStreetConnector(): IStreetConnector
            +setPreviousStreetConnector(IStreetConnector): void
            +setNextStreetConnector(IStreetConnector): void
            +getCarPositions(): Map<ICar, Double>
            +updateAllCarsPositions(): void
            +isFirstCarOnExitPoint(): boolean
            +firstCarCouldEnterNextSection(): boolean
            +isEnoughSpace(double): boolean
            +moveFirstCarToNextSection(): void
            +carCouldEnterNextSection(): boolean
            +getNrOfEnteredCars(): int
            +carEnter(Car): void
            +isFull(): boolean
            +toDTO(): DTO
        }

        class RoundaboutSource [[../../../../../at/fhv/itm3/s2/roundabout/RoundaboutSource.html]] {
            +RoundaboutSource(Model, String, boolean, Street)
            +startGeneratingCars(): void
            +carDelivered(CarDepartureEvent, Car, boolean): void
            +toDTO(): DTO
        }

        abstract class desmoj.core.simulator.Model {
            {abstract} +description(): String
            {abstract} +doInitialSchedules(): void
            {abstract} +init(): void
        }
        desmoj.core.simulator.Model <|- - RoundaboutSimulationModel

        abstract class at.fhv.itm3.s2.roundabout.api.entity.Street {
            {abstract} +getLength(): double
            {abstract} +addCar(ICar): void
            {abstract} +getFirstCar(): ICar
            {abstract} +getLastCar(): ICar
            {abstract} +removeFirstCar(): ICar
            {abstract} +isEmpty(): boolean
            {abstract} +getNextStreetConnector(): IStreetConnector
            {abstract} +getPreviousStreetConnector(): IStreetConnector
            {abstract} +setPreviousStreetConnector(IStreetConnector): void
            {abstract} +setNextStreetConnector(IStreetConnector): void
            {abstract} +getCarPositions(): Map<ICar, Double>
            {abstract} +updateAllCarsPositions(): void
            {abstract} +isFirstCarOnExitPoint(): boolean
            {abstract} +firstCarCouldEnterNextSection(): boolean
            {abstract} +isEnoughSpace(double): boolean
            {abstract} +moveFirstCarToNextSection(): void
            {abstract} +getNrOfEnteredCars(): int
        }
        at.fhv.itm3.s2.roundabout.api.entity.Street <|- - Sink

        abstract class at.fhv.itm3.s2.roundabout.api.entity.AbstractSource {
            {abstract} +startGeneratingCars(): void
            {abstract} +getConnectedStreet(): Street
        }
        at.fhv.itm3.s2.roundabout.api.entity.AbstractSource <|- - RoundaboutSource

        RoundaboutSource - -> at.fhv.itm3.s2.roundabout.api.entity.Street: connectedStreet

    }

@enduml

PlantUML version 1.2017.19(Sun Nov 12 12:46:22 CET 2017)
(APACHE source distribution)
Java Runtime: Java(TM) SE Runtime Environment
JVM: Java HotSpot(TM) 64-Bit Server VM
Java Version: 1.8.0_77-b03
Operating System: Mac OS X
OS Version: 10.13.1
Default Encoding: UTF-8
Language: de
Country: AT
--></g></svg>